<svg width="40" height="45" viewBox="0 0 40 45" fill="none" xmlns="http://www.w3.org/2000/svg">
<path d="M39.4616 10.4133C39.4929 10.4133 39.5242 10.3852 39.5242 10.343V1.16719L39.5054 0.0632813C39.5054 0.028125 39.4804 0 39.4429 0L0.0625284 0.0140625C0.0312642 0.0140625 0 0.0421875 0 0.084375V43.8258L0.0187585 45H38.4737L39.4554 44.9789C39.4867 44.9789 39.5117 44.9508 39.5117 44.9086V34.9172C39.5117 34.882 39.4867 34.8469 39.4491 34.8469H37.5108C37.4795 34.8469 37.4482 34.875 37.4482 34.9172V42.6164C37.4482 42.6516 37.4232 42.6867 37.3857 42.6867H2.11346C2.08219 42.6867 2.05093 42.6586 2.05093 42.6164V2.36953C2.05093 2.33438 2.07594 2.29922 2.11346 2.29922H37.4045C37.4357 2.29922 37.467 2.32734 37.467 2.36953V10.35C37.467 10.3852 37.492 10.4203 37.5295 10.4203H39.4679L39.4616 10.4133Z" fill="#DC1F3E"/>
</svg>
