<svg width="123" height="125" viewBox="0 0 123 125" fill="none" xmlns="http://www.w3.org/2000/svg">
<path d="M122.373 28.7171C122.47 28.7171 122.567 28.6396 122.567 28.5232V3.2188L122.508 0.174513C122.508 0.0775615 122.431 0 122.315 0L0.193904 0.0387808C0.0969519 0.0387808 0 0.116342 0 0.232685V120.86L0.0581711 124.098H119.309L122.353 124.04C122.45 124.04 122.528 123.963 122.528 123.846V96.2926C122.528 96.1957 122.45 96.0987 122.334 96.0987H116.323C116.226 96.0987 116.129 96.1763 116.129 96.2926V117.525C116.129 117.622 116.051 117.719 115.935 117.719H6.55395C6.457 117.719 6.36004 117.641 6.36004 117.525V6.53456C6.36004 6.43761 6.43761 6.34065 6.55395 6.34065H115.993C116.09 6.34065 116.187 6.41822 116.187 6.53456V28.5426C116.187 28.6396 116.265 28.7365 116.381 28.7365H122.392L122.373 28.7171Z" fill="white"/>
</svg>
