<svg width="37" height="48" viewBox="0 0 37 48" fill="none" xmlns="http://www.w3.org/2000/svg">
<path d="M36.492 46.5175C36.8217 46.9829 36.6278 47.4483 36.0267 47.4483H30.927C30.5198 47.4483 30.1902 47.2543 29.9962 46.9247L18.3814 28.0773L6.7084 46.9247C6.5145 47.2543 6.18487 47.4483 5.77767 47.4483H0.677991C0.0768897 47.4483 -0.194569 46.9829 0.154458 46.5175L15.085 23.6175L0.891287 0.930737C0.56165 0.465368 0.833124 0 1.41484 0H6.45633C6.78597 0 7.1156 0.193905 7.32889 0.523541L18.4008 19.0414L29.4145 0.523541C29.6084 0.193905 29.9381 0 30.2871 0H35.3286C35.8521 0 36.1236 0.465368 35.794 0.930737L21.6584 23.6175L36.5114 46.5175H36.492Z" fill="white"/>
</svg>
