<svg width="36" height="50" viewBox="0 0 36 50" fill="none" xmlns="http://www.w3.org/2000/svg">
<path d="M17.9005 19.5453C22.0826 19.5453 24.6023 17.4806 24.6023 14.0334C24.6023 10.8488 22.0826 8.92401 17.9005 8.92401C13.7185 8.92401 11.2688 10.8488 11.2688 14.0334C11.2688 17.4806 13.7185 19.5453 17.9005 19.5453ZM17.9005 39.9131C22.5375 39.9131 25.3372 37.5333 25.3372 33.8762C25.3372 30.2191 22.555 28.1719 17.9005 28.1719C13.246 28.1719 10.4638 30.2891 10.4638 33.8762C10.4638 37.4633 13.316 39.9131 17.9005 39.9131ZM17.9005 49.1345C6.94673 49.1345 0 43.5702 0 34.0162C0 29.2393 2.25725 25.0572 6.36929 23.0099C3.18465 20.6302 1.32986 17.2356 1.32986 13.2635C1.32986 5.70437 7.82163 0 17.918 0C28.0144 0 34.5062 5.63437 34.5062 13.2635C34.5062 17.2356 32.7214 20.6302 29.5367 23.0099C33.6488 25.1272 35.836 29.2393 35.836 34.0162C35.836 43.5702 28.9418 49.1345 17.9355 49.1345H17.9005Z" fill="white"/>
</svg>
