<svg width="18" height="48" viewBox="0 0 18 48" fill="none" xmlns="http://www.w3.org/2000/svg">
<path d="M0 8.85402C0 2.95717 2.9047 0 8.71405 0C14.5234 0 17.4456 2.95717 17.4456 8.85402V14.1034H12.9311V8.85402C12.9311 5.91434 11.5312 4.42701 8.73154 4.40951H8.67905C5.89686 4.40951 4.49701 5.87935 4.49701 8.85402V13.1935C4.49701 15.7133 6.82427 18.6529 11.4787 21.9951C15.4508 24.8297 17.4456 28.1894 17.4456 32.0914V38.1458C17.4456 44.0601 14.5409 47.0173 8.73154 47.0173C2.90469 47.0173 0 44.0426 0 38.1458V32.8964H4.5145V38.1458C4.5145 41.1029 5.93184 42.5903 8.74903 42.5903C11.5662 42.5903 12.9486 41.1204 12.9486 38.1458V32.6864C12.9486 29.9567 10.6213 26.9295 5.96684 23.6049C1.99479 20.7527 0 17.3231 0 13.316V8.83652V8.85402Z" fill="white"/>
</svg>
