<svg width="36" height="50" viewBox="0 0 36 50" fill="none" xmlns="http://www.w3.org/2000/svg">
<path d="M17.9167 19.5455C22.105 19.5455 24.6258 17.4901 24.6258 14.0386C24.6258 10.8586 22.105 8.93897 17.9167 8.93897C13.7284 8.93897 11.2852 10.8586 11.2852 14.0386C11.2852 17.4901 13.7478 19.5455 17.9167 19.5455ZM17.9167 39.9248C22.5704 39.9248 25.3432 37.5398 25.3432 33.8944C25.3432 30.249 22.551 28.1936 17.9167 28.1936C13.2824 28.1936 10.4902 30.3266 10.4902 33.8944C10.4902 37.4622 13.3406 39.9248 17.9167 39.9248ZM17.9167 49.1546C6.96114 49.1546 0 43.5896 0 34.0301C0 29.2601 2.24928 25.0718 6.36004 23.0164C3.18002 20.6314 1.31855 17.238 1.31855 13.263C1.31855 5.70077 7.81432 0 17.8973 0C27.9803 0 34.4761 5.6426 34.4761 13.263C34.4761 17.238 32.6922 20.6314 29.4928 23.0164C33.6035 25.1493 35.7946 29.2601 35.7946 34.0301C35.7946 43.5896 28.8917 49.1546 17.8779 49.1546H17.9167Z" fill="white"/>
</svg>
