<svg width="24" height="24" viewBox="0 0 24 24" fill="none" xmlns="http://www.w3.org/2000/svg">
<path d="M7.0734 9.81301L5.0154 11.871C4.17141 12.715 3.69727 13.8597 3.69727 15.0533C3.69727 16.2468 4.17141 17.3915 5.0154 18.2355C5.85938 19.0795 7.00407 19.5536 8.19765 19.5536C9.39122 19.5536 10.5359 19.0795 11.3799 18.2355L14.1219 15.492C14.6308 14.983 15.0102 14.3593 15.2283 13.6733C15.4463 12.9873 15.4966 12.2591 15.3749 11.5496C15.2533 10.8402 14.9632 10.1703 14.529 9.59611C14.0949 9.02197 13.5294 8.56036 12.8799 8.25001L12.0009 9.12901C11.9117 9.21841 11.834 9.31869 11.7699 9.42751C12.2717 9.57176 12.7271 9.84448 13.0912 10.2187C13.4553 10.5929 13.7155 11.0557 13.8459 11.5612C13.9763 12.0668 13.9726 12.5976 13.835 13.1013C13.6974 13.605 13.4308 14.064 13.0614 14.433L10.3209 17.175C9.75797 17.7379 8.99449 18.0542 8.1984 18.0542C7.4023 18.0542 6.63882 17.7379 6.0759 17.175C5.51297 16.6121 5.19673 15.8486 5.19673 15.0525C5.19673 14.2564 5.51297 13.4929 6.0759 12.93L7.2654 11.742C7.09757 11.1131 7.03273 10.4627 7.0734 9.81301Z" fill="#DA1F3D"/>
<path d="M9.8799 7.00801C9.37095 7.51702 8.99154 8.1407 8.77351 8.82669C8.55548 9.51267 8.50519 10.241 8.62686 10.9504C8.74853 11.6599 9.03861 12.3298 9.47275 12.9039C9.90689 13.478 10.4724 13.9397 11.1219 14.25L12.2844 13.086C11.7758 12.9496 11.3121 12.6817 10.9398 12.3093C10.5676 11.9369 10.2999 11.4731 10.1637 10.9644C10.0275 10.4558 10.0276 9.92028 10.1639 9.41168C10.3002 8.90308 10.568 8.43932 10.9404 8.06701L13.6809 5.32501C14.2438 4.76208 15.0073 4.44584 15.8034 4.44584C16.5995 4.44584 17.363 4.76208 17.9259 5.32501C18.4888 5.88793 18.8051 6.65142 18.8051 7.44751C18.8051 8.2436 18.4888 9.00708 17.9259 9.57001L16.7364 10.758C16.9044 11.388 16.9689 12.0405 16.9284 12.6885L18.9864 10.6305C19.8304 9.78652 20.3045 8.64183 20.3045 7.44826C20.3045 6.25468 19.8304 5.10999 18.9864 4.26601C18.1424 3.42202 16.9977 2.94788 15.8041 2.94788C14.6106 2.94788 13.4659 3.42202 12.6219 4.26601L9.8799 7.00801Z" fill="#DA1F3D"/>
</svg>
