<svg width="28" height="67" viewBox="0 0 28 67" fill="none" xmlns="http://www.w3.org/2000/svg">
<path d="M4.6782 38.881C4.945 39.1506 5.09368 39.5148 5.09368 39.8955V60.5613C5.09368 61.3536 5.72912 61.9956 6.51323 61.9956H7.39714C8.85946 61.9956 10.0448 63.1932 10.0448 64.6706V65.5637C10.0448 66.3559 10.6802 66.9979 11.4643 66.9979H26.2464C27.0305 66.9979 27.666 66.3559 27.666 65.5637V61.9956C27.666 61.2033 27.0305 60.5613 26.2464 60.5613H12.8819C12.0977 60.5613 11.4623 59.9193 11.4623 59.1271V37.5373C11.4623 37.1566 11.3136 36.7924 11.0468 36.5228L9.05701 34.5124C8.50304 33.9527 8.50304 33.0452 9.05701 32.4835L11.0468 30.4731C11.3136 30.2035 11.4623 29.8393 11.4623 29.4586V7.93259C11.4623 7.14036 12.0977 6.49834 12.8819 6.49834H26.2464C27.0305 6.49834 27.666 5.85633 27.666 5.0641V1.49598C27.666 0.703747 27.0305 0.0617322 26.2464 0.0617322H11.4643V0C10.6802 0 10.0448 0.642015 10.0448 1.43424V2.3273C10.0448 3.80476 8.85946 5.00236 7.39714 5.00236H6.51323C5.72912 5.00236 5.09368 5.64438 5.09368 6.43661V27.2218C5.09368 27.6025 4.945 27.9667 4.6782 28.2363L0.415478 32.5431C-0.138493 33.1029 -0.138493 34.0103 0.415478 34.5721L4.6782 38.8789V38.881Z" fill="white"/>
</svg>
