<svg width="31" height="44" viewBox="0 0 31 44" fill="none" xmlns="http://www.w3.org/2000/svg">
<path d="M23.9185 1.85402L23.9552 28.7672C23.9572 30.2467 22.7719 31.4464 21.3075 31.4464C20.0366 31.4464 19.0081 32.4876 19.0081 33.7696V34.603C19.0081 35.6236 18.1914 36.4508 17.1833 36.4549L13.1629 36.4714C12.1487 36.4755 11.3218 35.6442 11.3218 34.6194V33.7696C11.3218 32.4855 10.2912 31.4464 9.0224 31.4464H9.01832C7.556 31.4464 6.37067 30.2488 6.37067 28.7713V1.85197C6.37067 0.829269 5.5499 0 4.53768 0H1.83299C0.820773 0 0 0.829269 0 1.85197V31.3455C0 32.3682 0.820773 33.1975 1.83299 33.1975H2.30346C3.76578 33.1975 4.95111 34.3951 4.95111 35.8726V36.3479C4.95111 37.3706 5.77189 38.1999 6.7841 38.1999H7.25457C8.71689 38.1999 9.90223 39.3975 9.90223 40.8749V41.3503C9.90223 42.373 10.723 43.2022 11.7352 43.2022H18.5519C19.5641 43.2022 20.3849 42.373 20.3849 41.3503V40.8749C20.3849 39.3975 21.5702 38.1999 23.0325 38.1999H23.503C24.5152 38.1999 25.336 37.3706 25.336 36.3479V35.8726C25.336 34.3951 26.5214 33.1975 27.9837 33.1975H28.4541C29.4663 33.1975 30.2871 32.3682 30.2871 31.3455V1.85197C30.2871 0.829269 29.4663 0 28.4541 0H25.7515C24.7372 0 23.9165 0.831327 23.9185 1.85402Z" fill="white"/>
</svg>
