<svg width="31" height="44" viewBox="0 0 31 44" fill="none" xmlns="http://www.w3.org/2000/svg">
<path d="M28.4541 5.00237H27.9837C26.5214 5.00237 25.336 3.80476 25.336 2.3273V1.85197C25.336 0.829269 24.5152 0 23.503 0H1.83299C0.820773 0 0 0.829269 0 1.85197V41.3523C0 42.375 0.820773 43.2043 1.83299 43.2043H23.503C24.5152 43.2043 25.336 42.375 25.336 41.3523V40.877C25.336 39.3995 26.5214 38.2019 27.9837 38.2019H28.4541C29.4664 38.2019 30.2871 37.3727 30.2871 36.35V6.85433C30.2871 5.83164 29.4664 5.00237 28.4541 5.00237ZM23.8737 33.9568C23.8737 35.4343 22.6884 36.6319 21.226 36.6319H8.97555C7.51323 36.6319 6.32789 35.4343 6.32789 33.9568V9.3051C6.32789 7.82764 7.51323 6.63004 8.97555 6.63004H21.226C22.6884 6.63004 23.8737 7.82764 23.8737 9.3051V33.9568Z" fill="white"/>
</svg>
