<svg width="31" height="44" viewBox="0 0 31 44" fill="none" xmlns="http://www.w3.org/2000/svg">
<path d="M6.41343 15.6779V9.2516C6.41343 7.77414 7.59877 6.57654 9.06108 6.57654H28.4541C29.4663 6.57654 30.2871 5.74727 30.2871 4.72457V1.85197C30.2871 0.829269 29.4663 0 28.4541 0H6.7841C5.77189 0 4.95111 0.829269 4.95111 1.85197V2.3273C4.95111 3.80476 3.76578 5.00237 2.30346 5.00237H1.83299C0.820773 5.00237 0 5.83164 0 6.85433V36.3479C0 37.3706 0.820773 38.1999 1.83299 38.1999H2.30346C3.76578 38.1999 4.95111 39.3975 4.95111 40.8749V41.3503C4.95111 42.373 5.77189 43.2022 6.7841 43.2022H28.4541C29.4663 43.2022 30.2871 42.373 30.2871 41.3503V38.4838C30.2871 37.4612 29.4663 36.6319 28.4541 36.6319H9.06108C7.59877 36.6319 6.41343 35.4343 6.41343 33.9568V27.5305C6.41343 26.053 7.59877 24.8554 9.06108 24.8554H28.4541C29.4663 24.8554 30.2871 24.0262 30.2871 23.0035V20.2049C30.2871 19.1822 29.4663 18.353 28.4541 18.353H9.06108C7.59877 18.353 6.41343 17.1554 6.41343 15.6779Z" fill="white"/>
</svg>
