<svg width="33" height="45" viewBox="0 0 33 45" fill="none" xmlns="http://www.w3.org/2000/svg">
<path d="M16.0326 44.4554C6.23421 44.4554 0 39.416 0 30.7776C0 26.4584 2.01833 22.6783 5.7006 20.8182C2.84928 18.6575 1.18737 15.5977 1.18737 11.9987C1.18737 5.15875 7.0061 0 16.0326 0C25.059 0 30.8757 5.09908 30.8757 11.9987C30.8757 15.5977 29.2729 18.6575 26.4215 20.8182C30.1038 22.738 32.0631 26.4584 32.0631 30.7776C32.0631 39.416 25.8879 44.4554 16.0305 44.4554H16.0326ZM16.0326 36.1174C20.1894 36.1174 22.6822 33.9568 22.6822 30.6583C22.6822 27.3597 20.1894 25.4995 16.0326 25.4995C11.8757 25.4995 9.38288 27.4194 9.38288 30.6583C9.38288 33.8971 11.9368 36.1174 16.0326 36.1174ZM16.0326 17.6986C19.7739 17.6986 22.0285 15.8384 22.0285 12.7189C22.0285 9.84011 19.7719 8.09926 16.0326 8.09926C12.2933 8.09926 10.0957 9.83805 10.0957 12.7189C10.0957 15.8384 12.2933 17.6986 16.0326 17.6986Z" fill="white"/>
</svg>
