<svg width="85" height="45" viewBox="0 0 85 45" fill="none" xmlns="http://www.w3.org/2000/svg">
<path d="M9.56007 42.5946C9.56007 43.3148 9.20365 43.6749 8.49082 43.6749H1.06924C0.356415 43.6749 0 43.3148 0 42.5946V1.85961C0 1.1394 0.356415 0.779297 1.06924 0.779297H8.49082C9.20365 0.779297 9.56007 1.1394 9.56007 1.85961V42.5946Z" fill="white"/>
<path d="M17.0067 43.6749C16.2939 43.6749 15.9375 43.3148 15.9375 42.5946V1.85961C15.9375 1.1394 16.2939 0.779297 17.0067 0.779297H31.6137C41.1147 0.779297 48.4181 5.09849 48.4181 17.5169V27.0566C48.4181 39.5348 41.1147 43.6749 31.6137 43.6749H17.0067ZM25.4976 34.6168H31.7318C36.3041 34.6168 38.6198 32.4561 38.6198 27.4785V17.0396C38.6198 12.0598 36.3041 9.77985 31.7318 9.77985H25.4976V34.6168Z" fill="white"/>
<path d="M68.3451 44.4554C58.5467 44.4554 52.3125 39.416 52.3125 30.7776C52.3125 26.4584 54.3308 22.6783 58.0131 20.8182C55.1618 18.6575 53.4999 15.5977 53.4999 11.9987C53.4999 5.15875 59.3186 0 68.3451 0C77.3715 0 83.1882 5.09908 83.1882 11.9987C83.1882 15.5977 81.5854 18.6575 78.734 20.8182C82.4163 22.738 84.3756 26.4584 84.3756 30.7776C84.3756 39.416 78.2004 44.4554 68.343 44.4554H68.3451ZM68.3451 36.1174C72.5019 36.1174 74.9947 33.9568 74.9947 30.6583C74.9947 27.3597 72.5019 25.4995 68.3451 25.4995C64.1882 25.4995 61.6954 27.4194 61.6954 30.6583C61.6954 33.8971 64.2493 36.1174 68.3451 36.1174ZM68.3451 17.6986C72.0864 17.6986 74.341 15.8384 74.341 12.7189C74.341 9.84011 72.0844 8.09926 68.3451 8.09926C64.6058 8.09926 62.4082 9.83805 62.4082 12.7189C62.4082 15.8384 64.6058 17.6986 68.3451 17.6986Z" fill="white"/>
</svg>
