<svg width="247" height="67" viewBox="0 0 247 67" fill="none" xmlns="http://www.w3.org/2000/svg">
<path d="M160.2 11.8672H157.453C156.441 11.8672 155.62 12.6965 155.62 13.7192V27.5472C155.62 29.0246 154.434 30.2222 152.972 30.2222H140.722C139.259 30.2222 138.074 29.0246 138.074 27.5472V13.7192C138.074 12.6965 137.253 11.8672 136.241 11.8672H133.579C132.567 11.8672 131.746 12.6965 131.746 13.7192V53.2195C131.746 54.2422 132.567 55.0715 133.579 55.0715H136.241C137.253 55.0715 138.074 54.2422 138.074 53.2195V39.3997C138.074 37.9223 139.259 36.7247 140.722 36.7247H152.972C154.434 36.7247 155.62 37.9223 155.62 39.3997V53.2195C155.62 54.2422 156.441 55.0715 157.453 55.0715H160.2C161.212 55.0715 162.033 54.2422 162.033 53.2195V13.7192C162.033 12.6965 161.212 11.8672 160.2 11.8672Z" fill="white"/>
<path d="M53.0284 16.8696H52.5579C51.0956 16.8696 49.9102 15.6719 49.9102 14.1945V13.7192C49.9102 12.6965 49.0895 11.8672 48.0772 11.8672H26.4072C25.395 11.8672 24.5742 12.6965 24.5742 13.7192V53.2195C24.5742 54.2422 25.395 55.0715 26.4072 55.0715H48.0772C49.0895 55.0715 49.9102 54.2422 49.9102 53.2195V52.7442C49.9102 51.2667 51.0956 50.0691 52.5579 50.0691H53.0284C54.0406 50.0691 54.8613 49.2399 54.8613 48.2172V18.7215C54.8613 17.6988 54.0406 16.8696 53.0284 16.8696ZM48.4479 45.824C48.4479 47.3015 47.2626 48.4991 45.8003 48.4991H33.5498C32.0874 48.4991 30.9021 47.3015 30.9021 45.824V21.1723C30.9021 19.6948 32.0874 18.4972 33.5498 18.4972H45.8003C47.2626 18.4972 48.4479 19.6948 48.4479 21.1723V45.824Z" fill="white"/>
<path d="M191.366 13.7192V45.7643C191.366 47.2418 190.18 48.4394 188.718 48.4394H176.468C175.005 48.4394 173.82 47.2418 173.82 45.7643V13.7192C173.82 12.6965 172.999 11.8672 171.987 11.8672H169.282C168.27 11.8672 167.449 12.6965 167.449 13.7192V48.2151C167.449 49.2378 168.27 50.0671 169.282 50.0671H169.753C171.215 50.0671 172.4 51.2647 172.4 52.7421V53.2175C172.4 54.2402 173.221 55.0694 174.233 55.0694H190.952C191.964 55.0694 192.785 54.2402 192.785 53.2175V52.7421C192.785 51.2647 193.971 50.0671 195.433 50.0671H195.903C196.916 50.0671 197.736 49.2378 197.736 48.2151V13.7192C197.736 12.6965 196.916 11.8672 195.903 11.8672H193.199C192.186 11.8672 191.366 12.6965 191.366 13.7192Z" fill="white"/>
<path d="M119.93 13.7212L119.967 40.6344C119.969 42.1139 118.784 43.3136 117.319 43.3136C116.048 43.3136 115.02 44.3548 115.02 45.6368V46.4701C115.02 47.4908 114.203 48.318 113.195 48.3221L109.175 48.3386C108.16 48.3427 107.334 47.5114 107.334 46.4866V45.6368C107.334 44.3527 106.303 43.3136 105.034 43.3136H105.03C103.568 43.3136 102.382 42.116 102.382 40.6385V13.7192C102.382 12.6965 101.562 11.8672 100.549 11.8672H97.8447C96.8325 11.8672 96.0117 12.6965 96.0117 13.7192V43.2127C96.0117 44.2354 96.8325 45.0647 97.8447 45.0647H98.3152C99.7775 45.0647 100.963 46.2623 100.963 47.7398V48.2151C100.963 49.2378 101.784 50.0671 102.796 50.0671H103.266C104.729 50.0671 105.914 51.2647 105.914 52.7421V53.2175C105.914 54.2402 106.735 55.0694 107.747 55.0694H114.564C115.576 55.0694 116.397 54.2402 116.397 53.2175V52.7421C116.397 51.2647 117.582 50.0671 119.044 50.0671H119.515C120.527 50.0671 121.348 49.2378 121.348 48.2151V47.7398C121.348 46.2623 122.533 45.0647 123.995 45.0647H124.466C125.478 45.0647 126.299 44.2354 126.299 43.2127V13.7192C126.299 12.6965 125.478 11.8672 124.466 11.8672H121.763C120.749 11.8672 119.928 12.6985 119.93 13.7212Z" fill="white"/>
<path d="M65.5345 27.5451V21.1188C65.5345 19.6413 66.7199 18.4437 68.1822 18.4437H87.5752C88.5874 18.4437 89.4082 17.6145 89.4082 16.5918V13.7192C89.4082 12.6965 88.5874 11.8672 87.5752 11.8672H65.9052C64.893 11.8672 64.0722 12.6965 64.0722 13.7192V14.1945C64.0722 15.6719 62.8869 16.8696 61.4246 16.8696H60.9541C59.9419 16.8696 59.1211 17.6988 59.1211 18.7215V48.2151C59.1211 49.2378 59.9419 50.0671 60.9541 50.0671H61.4246C62.8869 50.0671 64.0722 51.2647 64.0722 52.7421V53.2175C64.0722 54.2402 64.893 55.0694 65.9052 55.0694H87.5752C88.5874 55.0694 89.4082 54.2402 89.4082 53.2175V50.351C89.4082 49.3283 88.5874 48.4991 87.5752 48.4991H68.1822C66.7199 48.4991 65.5345 47.3015 65.5345 45.824V39.3977C65.5345 37.9202 66.7199 36.7226 68.1822 36.7226H87.5752C88.5874 36.7226 89.4082 35.8934 89.4082 34.8707V32.0721C89.4082 31.0494 88.5874 30.2202 87.5752 30.2202H68.1822C66.7199 30.2202 65.5345 29.0226 65.5345 27.5451Z" fill="white"/>
<path d="M230.604 32.5681H230.807C232.27 32.5681 233.455 31.3704 233.455 29.893V18.7215C233.455 17.6988 232.634 16.8696 231.622 16.8696H231.152C229.689 16.8696 228.504 15.6719 228.504 14.1945V13.7192C228.504 12.6965 227.683 11.8672 226.671 11.8672H205.001C203.989 11.8672 203.168 12.6965 203.168 13.7192V53.2195C203.168 54.2422 203.989 55.0715 205.001 55.0715H226.671C227.683 55.0715 228.504 54.2422 228.504 53.2195V52.7442C228.504 51.2667 229.689 50.0691 231.152 50.0691H231.622C232.634 50.0691 233.455 49.2399 233.455 48.2172V37.1054C233.455 35.6279 232.27 34.4303 230.807 34.4303H230.604C230.095 34.4303 229.683 34.0146 229.683 33.5002C229.683 32.9858 230.095 32.5701 230.604 32.5701V32.5681ZM227.04 45.824C227.04 47.3015 225.854 48.4991 224.392 48.4991H212.227C210.765 48.4991 209.579 47.3015 209.579 45.824V39.3977C209.579 37.9202 210.765 36.7226 212.227 36.7226H224.392C225.854 36.7226 227.04 37.9202 227.04 39.3977V45.824ZM227.04 27.5451C227.04 29.0226 225.854 30.2202 224.392 30.2202H212.227C210.765 30.2202 209.579 29.0226 209.579 27.5451V21.1188C209.579 19.6413 210.765 18.4437 212.227 18.4437H224.392C225.854 18.4437 227.04 19.6413 227.04 21.1188V27.5451Z" fill="white"/>
<path d="M254.706 28.117C254.44 27.8474 254.291 27.4832 254.291 27.1025V6.43661C254.291 5.64438 253.656 5.00236 252.871 5.00236H251.988C250.525 5.00236 249.34 3.80476 249.34 2.3273V1.43424C249.34 0.642015 248.704 0 247.92 0H233.138C232.354 0 231.719 0.642015 231.719 1.43424V5.00236C231.719 5.79459 232.354 6.43661 233.138 6.43661H246.503C247.287 6.43661 247.922 7.07862 247.922 7.87085V29.4607C247.922 29.8413 248.071 30.2056 248.338 30.4751L250.328 32.4855C250.882 33.0452 250.882 33.9527 250.328 34.5145L248.338 36.5249C248.071 36.7944 247.922 37.1587 247.922 37.5393V59.0674C247.922 59.8596 247.287 60.5017 246.503 60.5017H233.138C232.354 60.5017 231.719 61.1437 231.719 61.9359V65.504C231.719 66.2962 232.354 66.9383 233.138 66.9383H247.92V67C248.704 67 249.34 66.358 249.34 65.5658V64.6727C249.34 63.1952 250.525 61.9976 251.988 61.9976H252.871C253.656 61.9976 254.291 61.3556 254.291 60.5634V39.7782C254.291 39.3975 254.44 39.0333 254.706 38.7637L258.969 34.4568C259.523 33.8971 259.523 32.9897 258.969 32.4279L254.706 28.1211V28.117Z" fill="white"/>
<path d="M4.6782 38.881C4.945 39.1506 5.09368 39.5148 5.09368 39.8955V60.5613C5.09368 61.3536 5.72912 61.9956 6.51323 61.9956H7.39714C8.85946 61.9956 10.0448 63.1932 10.0448 64.6706V65.5637C10.0448 66.3559 10.6802 66.9979 11.4643 66.9979H26.2464C27.0305 66.9979 27.666 66.3559 27.666 65.5637V61.9956C27.666 61.2033 27.0305 60.5613 26.2464 60.5613H12.8819C12.0977 60.5613 11.4623 59.9193 11.4623 59.1271V37.5373C11.4623 37.1566 11.3136 36.7924 11.0468 36.5228L9.05701 34.5124C8.50304 33.9527 8.50304 33.0452 9.05701 32.4835L11.0468 30.4731C11.3136 30.2035 11.4623 29.8393 11.4623 29.4586V7.93259C11.4623 7.14036 12.0977 6.49834 12.8819 6.49834H26.2464C27.0305 6.49834 27.666 5.85633 27.666 5.0641V1.49598C27.666 0.703747 27.0305 0.0617322 26.2464 0.0617322H11.4643V0C10.6802 0 10.0448 0.642015 10.0448 1.43424V2.3273C10.0448 3.80476 8.85946 5.00236 7.39714 5.00236H6.51323C5.72912 5.00236 5.09368 5.64438 5.09368 6.43661V27.2218C5.09368 27.6025 4.945 27.9667 4.6782 28.2363L0.415478 32.5431C-0.138493 33.1029 -0.138493 34.0103 0.415478 34.5721L4.6782 38.8789V38.881Z" fill="white"/>
</svg>
