<svg width="31" height="44" viewBox="0 0 31 44" fill="none" xmlns="http://www.w3.org/2000/svg">
<path d="M28.4541 0H25.7067C24.6945 0 23.8737 0.829269 23.8737 1.85197V15.68C23.8737 17.1574 22.6884 18.355 21.226 18.355H8.97554C7.51322 18.355 6.32788 17.1574 6.32788 15.68V1.85197C6.32788 0.829269 5.50711 0 4.49489 0H1.83299C0.820773 0 0 0.829269 0 1.85197V41.3523C0 42.375 0.820773 43.2043 1.83299 43.2043H4.49489C5.50711 43.2043 6.32788 42.375 6.32788 41.3523V27.5326C6.32788 26.0551 7.51322 24.8575 8.97554 24.8575H21.226C22.6884 24.8575 23.8737 26.0551 23.8737 27.5326V41.3523C23.8737 42.375 24.6945 43.2043 25.7067 43.2043H28.4541C29.4663 43.2043 30.2871 42.375 30.2871 41.3523V1.85197C30.2871 0.829269 29.4663 0 28.4541 0Z" fill="white"/>
</svg>
