<svg width="15" height="67" viewBox="0 0 15 67" fill="none" xmlns="http://www.w3.org/2000/svg">
<path d="M22.9877 28.117C22.7209 27.8474 22.5723 27.4832 22.5723 27.1025V6.43661C22.5723 5.64438 21.9368 5.00236 21.1527 5.00236H20.2688C18.8065 5.00236 17.6211 3.80476 17.6211 2.3273V1.43424C17.6211 0.642015 16.9857 0 16.2016 0H1.41954C0.635431 0 0 0.642015 0 1.43424V5.00236C0 5.79459 0.635431 6.43661 1.41954 6.43661H14.7841C15.5682 6.43661 16.2036 7.07862 16.2036 7.87085V29.4607C16.2036 29.8413 16.3523 30.2056 16.6191 30.4751L18.6089 32.4855C19.1629 33.0452 19.1629 33.9527 18.6089 34.5145L16.6191 36.5249C16.3523 36.7944 16.2036 37.1587 16.2036 37.5393V59.0674C16.2036 59.8596 15.5682 60.5017 14.7841 60.5017H1.41954C0.635431 60.5017 0 61.1437 0 61.9359V65.504C0 66.2962 0.635431 66.9383 1.41954 66.9383H16.2016V67C16.9857 67 17.6211 66.358 17.6211 65.5658V64.6727C17.6211 63.1952 18.8065 61.9976 20.2688 61.9976H21.1527C21.9368 61.9976 22.5723 61.3556 22.5723 60.5634V39.7782C22.5723 39.3975 22.7209 39.0333 22.9877 38.7637L27.2505 34.4568C27.8044 33.8971 27.8044 32.9897 27.2505 32.4279L22.9877 28.1211V28.117Z" fill="white"/>
</svg>
