<svg width="35" height="48" viewBox="0 0 35 48" fill="none" xmlns="http://www.w3.org/2000/svg">
<path d="M0.794998 47.4483C0.271458 47.4483 0 47.1768 0 46.7114V0.736833C0 0.271464 0.271458 0 0.794998 0H5.44869C5.77833 0 6.18553 0.193905 6.37944 0.523541L23.9665 29.1825C25.7504 32.2268 27.8834 35.7559 29.5315 38.8777L29.7254 38.8195C29.454 33.3127 29.3182 26.4097 29.3182 20.8447V0.736833C29.3182 0.271464 29.5897 0 30.0551 0H34.1658C34.6312 0 34.9027 0.271464 34.9027 0.736833V46.7114C34.9027 47.1768 34.6312 47.4483 34.1658 47.4483H29.5122C29.105 47.4483 28.7753 47.3125 28.5814 46.9829L11.1301 19.3128C9.21043 16.191 7.01931 12.4098 5.35173 9.22982L5.216 9.28799C5.40991 14.5234 5.6232 21.3682 5.6232 26.6036V46.7114C5.6232 47.1768 5.29357 47.4483 4.8282 47.4483H0.775603H0.794998Z" fill="white"/>
</svg>
