<svg width="31" height="44" viewBox="0 0 31 44" fill="none" xmlns="http://www.w3.org/2000/svg">
<path d="M23.9165 1.85197V33.8971C23.9165 35.3746 22.7311 36.5722 21.2688 36.5722H9.01832C7.556 36.5722 6.37067 35.3746 6.37067 33.8971V1.85197C6.37067 0.829269 5.5499 0 4.53768 0H1.83299C0.820773 0 0 0.829269 0 1.85197V36.3479C0 37.3706 0.820773 38.1999 1.83299 38.1999H2.30347C3.76579 38.1999 4.95113 39.3975 4.95113 40.8749V41.3503C4.95113 42.373 5.7719 43.2022 6.78412 43.2022H23.503C24.5152 43.2022 25.336 42.373 25.336 41.3503V40.8749C25.336 39.3975 26.5214 38.1999 27.9837 38.1999H28.4541C29.4663 38.1999 30.2871 37.3706 30.2871 36.3479V1.85197C30.2871 0.829269 29.4663 0 28.4541 0H25.7495C24.7372 0 23.9165 0.829269 23.9165 1.85197Z" fill="white"/>
</svg>
