<svg width="31" height="44" viewBox="0 0 31 44" fill="none" xmlns="http://www.w3.org/2000/svg">
<path d="M27.4358 20.7009H27.6395C29.1018 20.7009 30.2871 19.5033 30.2871 18.0258V6.85433C30.2871 5.83164 29.4663 5.00237 28.4541 5.00237H27.9837C26.5214 5.00237 25.336 3.80476 25.336 2.3273V1.85197C25.336 0.829269 24.5152 0 23.503 0H1.83299C0.820773 0 0 0.829269 0 1.85197V41.3523C0 42.375 0.820773 43.2043 1.83299 43.2043H23.503C24.5152 43.2043 25.336 42.375 25.336 41.3523V40.877C25.336 39.3995 26.5214 38.2019 27.9837 38.2019H28.4541C29.4663 38.2019 30.2871 37.3727 30.2871 36.35V25.2382C30.2871 23.7607 29.1018 22.5631 27.6395 22.5631H27.4358C26.9266 22.5631 26.5153 22.1475 26.5153 21.633C26.5153 21.1186 26.9266 20.7029 27.4358 20.7029V20.7009ZM23.8716 33.9568C23.8716 35.4343 22.6863 36.6319 21.224 36.6319H9.05905C7.59673 36.6319 6.41139 35.4343 6.41139 33.9568V27.5305C6.41139 26.053 7.59673 24.8554 9.05905 24.8554H21.224C22.6863 24.8554 23.8716 26.053 23.8716 27.5305V33.9568ZM23.8716 15.6779C23.8716 17.1554 22.6863 18.353 21.224 18.353H9.05905C7.59673 18.353 6.41139 17.1554 6.41139 15.6779V9.2516C6.41139 7.77414 7.59673 6.57654 9.05905 6.57654H21.224C22.6863 6.57654 23.8716 7.77414 23.8716 9.2516V15.6779Z" fill="white"/>
</svg>
