<svg width="336" height="67" viewBox="0 0 336 67" fill="none" xmlns="http://www.w3.org/2000/svg">
<g clip-path="url(#clip0_1169_2028)">
<path d="M9.56007 53.8231C9.56007 54.5433 9.20365 54.9034 8.49082 54.9034H1.06924C0.356415 54.9034 0 54.5433 0 53.8231V13.0881C0 12.3679 0.356415 12.0078 1.06924 12.0078H8.49082C9.20365 12.0078 9.56007 12.3679 9.56007 13.0881V53.8231Z" fill="white"/>
<path d="M17.0067 54.9034C16.2939 54.9034 15.9375 54.5433 15.9375 53.8231V13.0881C15.9375 12.3679 16.2939 12.0078 17.0067 12.0078H31.6137C41.1147 12.0078 48.4181 16.327 48.4181 28.7455V38.2851C48.4181 50.7633 41.1147 54.9034 31.6137 54.9034H17.0067ZM25.4976 45.8453H31.7318C36.3041 45.8453 38.6198 43.6846 38.6198 38.707V28.2681C38.6198 23.2883 36.3041 21.0084 31.7318 21.0084H25.4976V45.8453Z" fill="white"/>
<path d="M68.3451 55.682C58.5467 55.682 52.3125 50.6426 52.3125 42.0042C52.3125 37.685 54.3308 33.9049 58.0131 32.0447C55.1618 29.8841 53.4999 26.8242 53.4999 23.2252C53.4999 16.3853 59.3186 11.2266 68.3451 11.2266C77.3715 11.2266 83.1882 16.3256 83.1882 23.2252C83.1882 26.8242 81.5854 29.8841 78.734 32.0447C82.4163 33.9646 84.3756 37.685 84.3756 42.0042C84.3756 50.6426 78.2004 55.682 68.343 55.682H68.3451ZM68.3451 47.344C72.5019 47.344 74.9947 45.1834 74.9947 41.8848C74.9947 38.5863 72.5019 36.7261 68.3451 36.7261C64.1882 36.7261 61.6954 38.6459 61.6954 41.8848C61.6954 45.1237 64.2493 47.344 68.3451 47.344ZM68.3451 28.9252C72.0864 28.9252 74.341 27.065 74.341 23.9455C74.341 21.0667 72.0844 19.3258 68.3451 19.3258C64.6058 19.3258 62.4082 21.0646 62.4082 23.9455C62.4082 27.065 64.6058 28.9252 68.3451 28.9252Z" fill="white"/>
<path d="M250.845 11.8672H248.097C247.085 11.8672 246.264 12.6965 246.264 13.7192V27.5472C246.264 29.0246 245.079 30.2222 243.617 30.2222H231.366C229.904 30.2222 228.719 29.0246 228.719 27.5472V13.7192C228.719 12.6965 227.898 11.8672 226.886 11.8672H224.224C223.211 11.8672 222.391 12.6965 222.391 13.7192V53.2195C222.391 54.2422 223.211 55.0715 224.224 55.0715H226.886C227.898 55.0715 228.719 54.2422 228.719 53.2195V39.3997C228.719 37.9223 229.904 36.7247 231.366 36.7247H243.617C245.079 36.7247 246.264 37.9223 246.264 39.3997V53.2195C246.264 54.2422 247.085 55.0715 248.097 55.0715H250.845C251.857 55.0715 252.678 54.2422 252.678 53.2195V13.7192C252.678 12.6965 251.857 11.8672 250.845 11.8672Z" fill="white"/>
<path d="M143.673 16.8696H143.202C141.74 16.8696 140.555 15.6719 140.555 14.1945V13.7192C140.555 12.6965 139.734 11.8672 138.722 11.8672H117.052C116.04 11.8672 115.219 12.6965 115.219 13.7192V53.2195C115.219 54.2422 116.04 55.0715 117.052 55.0715H138.722C139.734 55.0715 140.555 54.2422 140.555 53.2195V52.7442C140.555 51.2667 141.74 50.0691 143.202 50.0691H143.673C144.685 50.0691 145.506 49.2399 145.506 48.2172V18.7215C145.506 17.6988 144.685 16.8696 143.673 16.8696ZM139.092 45.824C139.092 47.3015 137.907 48.4991 136.445 48.4991H124.194C122.732 48.4991 121.547 47.3015 121.547 45.824V21.1723C121.547 19.6948 122.732 18.4972 124.194 18.4972H136.445C137.907 18.4972 139.092 19.6948 139.092 21.1723V45.824Z" fill="white"/>
<path d="M282.01 13.7192V45.7643C282.01 47.2418 280.825 48.4394 279.363 48.4394H267.112C265.65 48.4394 264.464 47.2418 264.464 45.7643V13.7192C264.464 12.6965 263.644 11.8672 262.631 11.8672H259.927C258.915 11.8672 258.094 12.6965 258.094 13.7192V48.2151C258.094 49.2378 258.915 50.0671 259.927 50.0671H260.397C261.86 50.0671 263.045 51.2647 263.045 52.7421V53.2175C263.045 54.2402 263.866 55.0694 264.878 55.0694H281.597C282.609 55.0694 283.43 54.2402 283.43 53.2175V52.7421C283.43 51.2647 284.615 50.0671 286.077 50.0671H286.548C287.56 50.0671 288.381 49.2378 288.381 48.2151V13.7192C288.381 12.6965 287.56 11.8672 286.548 11.8672H283.843C282.831 11.8672 282.01 12.6965 282.01 13.7192Z" fill="white"/>
<path d="M210.575 13.7212L210.611 40.6344C210.613 42.1139 209.428 43.3136 207.964 43.3136C206.693 43.3136 205.664 44.3548 205.664 45.6368V46.4701C205.664 47.4908 204.848 48.318 203.84 48.3221L199.819 48.3386C198.805 48.3427 197.978 47.5114 197.978 46.4866V45.6368C197.978 44.3527 196.947 43.3136 195.679 43.3136H195.675C194.212 43.3136 193.027 42.116 193.027 40.6385V13.7192C193.027 12.6965 192.206 11.8672 191.194 11.8672H188.489C187.477 11.8672 186.656 12.6965 186.656 13.7192V43.2127C186.656 44.2354 187.477 45.0647 188.489 45.0647H188.96C190.422 45.0647 191.607 46.2623 191.607 47.7398V48.2151C191.607 49.2378 192.428 50.0671 193.44 50.0671H193.911C195.373 50.0671 196.558 51.2647 196.558 52.7421V53.2175C196.558 54.2402 197.379 55.0694 198.391 55.0694H205.208C206.22 55.0694 207.041 54.2402 207.041 53.2175V52.7421C207.041 51.2647 208.226 50.0671 209.689 50.0671H210.159C211.171 50.0671 211.992 49.2378 211.992 48.2151V47.7398C211.992 46.2623 213.178 45.0647 214.64 45.0647H215.11C216.123 45.0647 216.943 44.2354 216.943 43.2127V13.7192C216.943 12.6965 216.123 11.8672 215.11 11.8672H212.408C211.393 11.8672 210.573 12.6985 210.575 13.7212Z" fill="white"/>
<path d="M156.179 27.5451V21.1188C156.179 19.6413 157.364 18.4437 158.827 18.4437H178.22C179.232 18.4437 180.053 17.6145 180.053 16.5918V13.7192C180.053 12.6965 179.232 11.8672 178.22 11.8672H156.55C155.538 11.8672 154.717 12.6965 154.717 13.7192V14.1945C154.717 15.6719 153.531 16.8696 152.069 16.8696H151.599C150.586 16.8696 149.766 17.6988 149.766 18.7215V48.2151C149.766 49.2378 150.586 50.0671 151.599 50.0671H152.069C153.531 50.0671 154.717 51.2647 154.717 52.7421V53.2175C154.717 54.2402 155.538 55.0694 156.55 55.0694H178.22C179.232 55.0694 180.053 54.2402 180.053 53.2175V50.351C180.053 49.3283 179.232 48.4991 178.22 48.4991H158.827C157.364 48.4991 156.179 47.3015 156.179 45.824V39.3977C156.179 37.9202 157.364 36.7226 158.827 36.7226H178.22C179.232 36.7226 180.053 35.8934 180.053 34.8707V32.0721C180.053 31.0494 179.232 30.2202 178.22 30.2202H158.827C157.364 30.2202 156.179 29.0226 156.179 27.5451Z" fill="white"/>
<path d="M321.248 32.568H321.452C322.914 32.568 324.1 31.3704 324.1 29.893V18.7215C324.1 17.6988 323.279 16.8696 322.267 16.8696H321.796C320.334 16.8696 319.149 15.6719 319.149 14.1945V13.7192C319.149 12.6965 318.328 11.8672 317.316 11.8672H295.645C294.633 11.8672 293.812 12.6965 293.812 13.7192V53.2195C293.812 54.2422 294.633 55.0715 295.645 55.0715H317.316C318.328 55.0715 319.149 54.2422 319.149 53.2195V52.7442C319.149 51.2667 320.334 50.0691 321.796 50.0691H322.267C323.279 50.0691 324.1 49.2399 324.1 48.2172V37.1054C324.1 35.6279 322.914 34.4303 321.452 34.4303H321.248C320.739 34.4303 320.328 34.0146 320.328 33.5002C320.328 32.9858 320.739 32.5701 321.248 32.5701V32.568ZM317.684 45.824C317.684 47.3015 316.499 48.4991 315.036 48.4991H302.872C301.409 48.4991 300.224 47.3015 300.224 45.824V39.3977C300.224 37.9202 301.409 36.7226 302.872 36.7226H315.036C316.499 36.7226 317.684 37.9202 317.684 39.3977V45.824ZM317.684 27.5451C317.684 29.0226 316.499 30.2202 315.036 30.2202H302.872C301.409 30.2202 300.224 29.0226 300.224 27.5451V21.1188C300.224 19.6413 301.409 18.4437 302.872 18.4437H315.036C316.499 18.4437 317.684 19.6413 317.684 21.1188V27.5451Z" fill="white"/>
<path d="M345.351 28.117C345.084 27.8474 344.936 27.4832 344.936 27.1025V6.43661C344.936 5.64438 344.3 5.00236 343.516 5.00236H342.632C341.17 5.00236 339.984 3.80476 339.984 2.3273V1.43424C339.984 0.642015 339.349 0 338.565 0H323.783C322.999 0 322.363 0.642015 322.363 1.43424V5.00236C322.363 5.79459 322.999 6.43661 323.783 6.43661H337.147C337.931 6.43661 338.567 7.07862 338.567 7.87085V29.4607C338.567 29.8413 338.716 30.2056 338.982 30.4751L340.972 32.4855C341.526 33.0452 341.526 33.9527 340.972 34.5145L338.982 36.5249C338.716 36.7944 338.567 37.1587 338.567 37.5393V59.0674C338.567 59.8596 337.931 60.5017 337.147 60.5017H323.783C322.999 60.5017 322.363 61.1437 322.363 61.9359V65.504C322.363 66.2962 322.999 66.9383 323.783 66.9383H338.565V67C339.349 67 339.984 66.358 339.984 65.5658V64.6727C339.984 63.1952 341.17 61.9976 342.632 61.9976H343.516C344.3 61.9976 344.936 61.3556 344.936 60.5634V39.7782C344.936 39.3975 345.084 39.0333 345.351 38.7637L349.614 34.4568C350.168 33.8971 350.168 32.9897 349.614 32.4279L345.351 28.1211V28.117Z" fill="white"/>
<path d="M95.3227 38.881C95.5895 39.1506 95.7382 39.5148 95.7382 39.8955V60.5613C95.7382 61.3536 96.3736 61.9956 97.1578 61.9956H98.0417C99.504 61.9956 100.689 63.1932 100.689 64.6706V65.5637C100.689 66.3559 101.325 66.9979 102.109 66.9979H116.891C117.675 66.9979 118.31 66.3559 118.31 65.5637V61.9956C118.31 61.2033 117.675 60.5613 116.891 60.5613H103.526C102.742 60.5613 102.107 59.9193 102.107 59.1271V37.5373C102.107 37.1566 101.958 36.7924 101.691 36.5228L99.7015 34.5124C99.1476 33.9527 99.1476 33.0452 99.7015 32.4835L101.691 30.4731C101.958 30.2035 102.107 29.8393 102.107 29.4586V7.93259C102.107 7.14036 102.742 6.49834 103.526 6.49834H116.891C117.675 6.49834 118.31 5.85633 118.31 5.0641V1.49598C118.31 0.703747 117.675 0.0617322 116.891 0.0617322H102.109V0C101.325 0 100.689 0.642015 100.689 1.43424V2.3273C100.689 3.80476 99.504 5.00236 98.0417 5.00236H97.1578C96.3736 5.00236 95.7382 5.64438 95.7382 6.43661V27.2218C95.7382 27.6025 95.5895 27.9667 95.3227 28.2363L91.06 32.5431C90.506 33.1029 90.506 34.0103 91.06 34.5721L95.3227 38.8789V38.881Z" fill="white"/>
</g>
<defs>
<clipPath id="clip0_1169_2028">
<rect width="336" height="67" fill="white"/>
</clipPath>
</defs>
</svg>
