<svg width="248" height="125" viewBox="0 0 248 125" fill="none" xmlns="http://www.w3.org/2000/svg">
<path d="M44.7953 38.3203H53.0894C53.7543 38.3203 54.2793 38.8628 54.2793 39.5102V84.5502C54.2793 85.2151 53.7368 85.7401 53.0894 85.7401H44.7953C44.1304 85.7401 43.6055 85.1976 43.6055 84.5502V39.5102C43.6055 38.8453 44.1479 38.3203 44.7953 38.3203Z" fill="white"/>
<path d="M72.0723 75.7312H79.0365C84.1459 75.7312 86.7356 73.3515 86.7356 67.8396V56.2909C86.7356 50.779 84.1459 48.2593 79.0365 48.2593H72.0723V75.7137V75.7312ZM62.5883 85.7576C61.7834 85.7576 61.3984 85.3552 61.3984 84.5678V39.5278C61.3984 38.7228 61.8009 38.3379 62.5883 38.3379H78.914C89.5353 38.3379 97.6894 43.1149 97.6894 56.8508V67.4022C97.6894 81.1906 89.5353 85.7751 78.914 85.7751H62.5883V85.7576Z" fill="white"/>
<path d="M119.947 57.0258C124.129 57.0258 126.649 54.961 126.649 51.5139C126.649 48.3293 124.129 46.4045 119.947 46.4045C115.765 46.4045 113.316 48.3293 113.316 51.5139C113.316 54.961 115.765 57.0258 119.947 57.0258ZM119.947 77.3935C124.584 77.3935 127.384 75.0138 127.384 71.3567C127.384 67.6996 124.602 65.6523 119.947 65.6523C115.293 65.6523 112.511 67.7696 112.511 71.3567C112.511 74.9438 115.363 77.3935 119.947 77.3935ZM119.947 86.615C108.994 86.615 102.047 81.0506 102.047 71.4967C102.047 66.7197 104.304 62.5377 108.416 60.4904C105.232 58.1107 103.377 54.7161 103.377 50.744C103.377 43.1848 109.869 37.4805 119.965 37.4805C130.061 37.4805 136.553 43.1148 136.553 50.744C136.553 54.7161 134.768 58.1107 131.584 60.4904C135.696 62.6077 137.883 66.7197 137.883 71.4967C137.883 81.0506 130.989 86.615 119.982 86.615H119.947Z" fill="white"/>
<path d="M102.03 22.7305C104.498 22.7305 106.51 20.7182 106.51 18.251C106.51 15.7838 104.515 13.7715 102.03 13.7715C99.5456 13.7715 97.5508 15.7838 97.5508 18.251C97.5508 20.7182 99.5456 22.7305 102.03 22.7305Z" fill="white"/>
<path d="M145.445 40.5957H160.966V44.9877H149.96V61.1209H159.444V65.5479H149.96V86.0732H145.445V40.5957Z" fill="white"/>
<path d="M169.975 40.5957H165.461V86.0907H169.975V40.5957Z" fill="white"/>
<path d="M177.047 86.0907V40.5957H181.561V81.6986H192.568V86.0907H177.047Z" fill="white"/>
<path d="M210.325 77.2541L219.319 40.5957H224.061V86.0732H219.862V49.3097L211.795 86.0732H209.03L200.789 49.6072V86.0732H196.484V40.5957H201.244L210.343 77.2541H210.325Z" fill="white"/>
<path d="M230.555 48.6802C230.555 42.7833 233.459 39.8262 239.269 39.8262C245.078 39.8262 248 42.7833 248 48.6802V53.9296H243.486V48.6802C243.486 45.7405 242.086 44.2532 239.286 44.2357H239.234C236.452 44.2357 235.052 45.7055 235.052 48.6802V53.0197C235.052 55.5394 237.379 58.4791 242.033 61.8212C246.005 64.6559 248 68.0155 248 71.9176V77.9719C248 83.8863 245.096 86.8435 239.286 86.8435C233.459 86.8435 230.555 83.8688 230.555 77.9719V72.7225H235.069V77.9719C235.069 80.9291 236.487 82.4164 239.304 82.4164C242.121 82.4164 243.503 80.9466 243.503 77.9719V72.5125C243.503 69.7828 241.176 66.7557 236.522 63.4311C232.549 60.5789 230.555 57.1493 230.555 53.1422V48.6627V48.6802Z" fill="white"/>
<path d="M122.469 0.174981C122.469 0.0699922 122.381 0 122.276 0H89.9922V6.36929H115.959C116.064 6.36929 116.152 6.45678 116.152 6.56177V28.5568C116.152 28.6618 116.239 28.7493 116.344 28.7493H122.346C122.451 28.7493 122.539 28.6618 122.539 28.5568V3.23714L122.486 0.192479L122.469 0.174981Z" fill="white"/>
<path d="M6.36929 33.2989V6.56187C6.36929 6.45688 6.45678 6.38689 6.56177 6.38689H32.5289V0.0350952H0.192479C0.0874903 0.0525933 0 0.140084 0 0.245072V33.2989H6.36929Z" fill="white"/>
<path d="M32.5289 117.691H6.56177C6.45678 117.691 6.36929 117.604 6.36929 117.499V90.7617H0V120.841L0.0699922 124.078H32.5464V117.709L32.5289 117.691Z" fill="white"/>
<path d="M122.346 96.0995H116.344C116.239 96.0995 116.152 96.187 116.152 96.292V117.517C116.152 117.622 116.064 117.71 115.959 117.71H89.9922V124.079H119.284L122.329 124.026C122.434 124.026 122.504 123.939 122.504 123.834V96.292C122.504 96.187 122.416 96.0995 122.311 96.0995H122.346Z" fill="white"/>
</svg>
