<svg width="24" height="24" viewBox="0 0 24 24" fill="none" xmlns="http://www.w3.org/2000/svg">
<path d="M7.0725 9.813L5.0145 11.871C4.17051 12.715 3.69637 13.8597 3.69637 15.0532C3.69637 16.2468 4.17051 17.3915 5.0145 18.2355C5.85848 19.0795 7.00317 19.5536 8.19675 19.5536C9.39032 19.5536 10.535 19.0795 11.379 18.2355L14.121 15.492C14.6299 14.983 15.0093 14.3593 15.2274 13.6733C15.4454 12.9873 15.4957 12.259 15.374 11.5496C15.2524 10.8402 14.9623 10.1702 14.5281 9.59611C14.094 9.02197 13.5285 8.56035 12.879 8.25L12 9.129C11.9108 9.2184 11.8331 9.31869 11.769 9.4275C12.2708 9.57175 12.7262 9.84447 13.0903 10.2187C13.4544 10.5929 13.7146 11.0557 13.845 11.5612C13.9754 12.0668 13.9717 12.5976 13.8341 13.1013C13.6965 13.6049 13.4299 14.064 13.0605 14.433L10.32 17.175C9.75707 17.7379 8.99359 18.0542 8.1975 18.0542C7.4014 18.0542 6.63792 17.7379 6.075 17.175C5.51207 16.6121 5.19583 15.8486 5.19583 15.0525C5.19583 14.2564 5.51207 13.4929 6.075 12.93L7.2645 11.742C7.09667 11.1131 7.03183 10.4626 7.0725 9.813Z" fill="#DA1F3D"/>
<path d="M9.879 7.008C9.37005 7.51701 8.99064 8.14069 8.77261 8.82668C8.55458 9.51267 8.50429 10.241 8.62596 10.9504C8.74762 11.6598 9.03771 12.3298 9.47185 12.9039C9.90599 13.478 10.4715 13.9397 11.121 14.25L12.2835 13.086C11.7749 12.9496 11.3112 12.6817 10.9389 12.3093C10.5667 11.9369 10.299 11.4731 10.1628 10.9644C10.0266 10.4558 10.0267 9.92027 10.163 9.41167C10.2993 8.90307 10.5671 8.43931 10.9395 8.067L13.68 5.325C14.2429 4.76208 15.0064 4.44583 15.8025 4.44583C16.5986 4.44583 17.3621 4.76208 17.925 5.325C18.4879 5.88792 18.8042 6.65141 18.8042 7.4475C18.8042 8.24359 18.4879 9.00708 17.925 9.57L16.7355 10.758C16.9035 11.388 16.968 12.0405 16.9275 12.6885L18.9855 10.6305C19.8295 9.78651 20.3036 8.64183 20.3036 7.44825C20.3036 6.25467 19.8295 5.10999 18.9855 4.266C18.1415 3.42201 16.9968 2.94787 15.8032 2.94787C14.6097 2.94787 13.465 3.42201 12.621 4.266L9.879 7.008Z" fill="#DA1F3D"/>
</svg>
