<svg width="257" height="125" viewBox="0 0 257 125" fill="none" xmlns="http://www.w3.org/2000/svg">
<path d="M53.0717 38.2961H44.792C44.1281 38.2961 43.5898 38.8343 43.5898 39.4983V84.5421C43.5898 85.2061 44.1281 85.7443 44.792 85.7443H53.0717C53.7357 85.7443 54.2739 85.2061 54.2739 84.5421V39.4983C54.2739 38.8343 53.7357 38.2961 53.0717 38.2961Z" fill="white"/>
<path d="M72.0931 75.7195H79.0543C84.154 75.7195 86.7523 73.3345 86.7523 67.8276V56.2903C86.7523 50.7835 84.154 48.2627 79.0543 48.2627H72.0931V75.7389V75.7195ZM62.5918 85.7443C61.7968 85.7443 61.3896 85.3371 61.3896 84.5421V39.4983C61.3896 38.7032 61.7968 38.2961 62.5918 38.2961H78.9186C89.5251 38.2961 97.6884 43.0661 97.6884 56.8139V67.3622C97.6884 81.1682 89.5251 85.7443 78.9186 85.7443H62.5918Z" fill="white"/>
<path d="M119.968 57.0078C124.157 57.0078 126.677 54.9524 126.677 51.5009C126.677 48.3209 124.157 46.4012 119.968 46.4012C115.78 46.4012 113.337 48.3209 113.337 51.5009C113.337 54.9524 115.799 57.0078 119.968 57.0078ZM119.968 77.3871C124.622 77.3871 127.395 75.0021 127.395 71.3567C127.395 67.7113 124.603 65.6559 119.968 65.6559C115.334 65.6559 112.542 67.7888 112.542 71.3567C112.542 74.9245 115.392 77.3871 119.968 77.3871ZM119.968 86.6169C109.013 86.6169 102.052 81.0519 102.052 71.4924C102.052 66.7224 104.301 62.534 108.412 60.4787C105.232 58.0936 103.37 54.7003 103.37 50.7253C103.37 43.1631 109.866 37.4623 119.949 37.4623C130.032 37.4623 136.528 43.1049 136.528 50.7253C136.528 54.7003 134.744 58.0936 131.544 60.4787C135.655 62.6116 137.846 66.7224 137.846 71.4924C137.846 81.0519 130.943 86.6169 119.929 86.6169H119.968Z" fill="white"/>
<path d="M144.167 85.7443C143.644 85.7443 143.372 85.4728 143.372 85.0075V39.0329C143.372 38.5675 143.644 38.2961 144.167 38.2961H148.821C149.15 38.2961 149.558 38.49 149.752 38.8196L167.339 67.4786C169.122 70.5229 171.255 74.0519 172.904 77.1738L173.098 77.1156C172.826 71.6087 172.69 64.7057 172.69 59.1407V39.0329C172.69 38.5675 172.962 38.2961 173.427 38.2961H177.538C178.003 38.2961 178.275 38.5675 178.275 39.0329V85.0075C178.275 85.4728 178.003 85.7443 177.538 85.7443H172.884C172.477 85.7443 172.147 85.6086 171.953 85.2789L154.502 57.6089C152.582 54.487 150.391 50.7059 148.724 47.5259L148.588 47.584C148.782 52.8194 148.995 59.6642 148.995 64.8996V85.0075C148.995 85.4728 148.666 85.7443 148.2 85.7443H144.148H144.167Z" fill="white"/>
<path d="M219.227 84.8136C219.557 85.2789 219.363 85.7443 218.762 85.7443H213.662C213.255 85.7443 212.926 85.5504 212.732 85.2208L201.117 66.3733L189.444 85.2208C189.25 85.5504 188.92 85.7443 188.513 85.7443H183.413C182.812 85.7443 182.541 85.2789 182.89 84.8136L197.82 61.9135L183.627 39.2268C183.297 38.7614 183.568 38.2961 184.15 38.2961H189.192C189.521 38.2961 189.851 38.49 190.064 38.8196L201.136 57.3374L212.15 38.8196C212.344 38.49 212.673 38.2961 213.022 38.2961H218.064C218.587 38.2961 218.859 38.7614 218.529 39.2268L204.394 61.9135L219.247 84.8136H219.227Z" fill="white"/>
<path d="M256.205 38.3154C256.67 38.3154 257 38.5868 257 39.0522V42.7752C257 43.2405 256.67 43.512 256.205 43.512H242.011V85.0462C242.011 85.5115 241.682 85.783 241.216 85.783H237.105C236.64 85.783 236.31 85.5115 236.31 85.0462V43.512H222.117C221.651 43.512 221.38 43.2405 221.38 42.7752V39.0522C221.38 38.5868 221.651 38.3154 222.117 38.3154H256.224H256.205Z" fill="white"/>
<path d="M122.373 28.7171C122.47 28.7171 122.567 28.6396 122.567 28.5232V3.2188L122.508 0.174513C122.508 0.0775615 122.431 0 122.315 0L0.193904 0.0387808C0.0969519 0.0387808 0 0.116342 0 0.232685V120.86L0.0581711 124.098H119.309L122.353 124.04C122.45 124.04 122.528 123.963 122.528 123.846V96.2926C122.528 96.1957 122.45 96.0987 122.334 96.0987H116.323C116.226 96.0987 116.129 96.1763 116.129 96.2926V117.525C116.129 117.622 116.051 117.719 115.935 117.719H6.55395C6.457 117.719 6.36004 117.641 6.36004 117.525V6.53456C6.36004 6.43761 6.43761 6.34065 6.55395 6.34065H115.993C116.09 6.34065 116.187 6.41822 116.187 6.53456V28.5426C116.187 28.6396 116.265 28.7365 116.381 28.7365H122.392L122.373 28.7171Z" fill="white"/>
</svg>
