<svg width="18" height="25" viewBox="0 0 18 25" fill="none" xmlns="http://www.w3.org/2000/svg">
<path d="M0.409996 24.47C0.139996 24.47 0 24.33 0 24.09V0.379999C0 0.139999 0.139996 0 0.409996 0H2.81C2.98 0 3.19 0.1 3.29 0.27L12.36 15.05C13.28 16.62 14.38 18.44 15.23 20.05L15.33 20.02C15.19 17.18 15.12 13.62 15.12 10.75V0.379999C15.12 0.139999 15.26 0 15.5 0H17.62C17.86 0 18 0.139999 18 0.379999V24.09C18 24.33 17.86 24.47 17.62 24.47H15.22C15.01 24.47 14.84 24.4 14.74 24.23L5.74 9.96C4.75 8.35 3.61999 6.4 2.75999 4.76L2.68999 4.79C2.78999 7.49 2.89999 11.02 2.89999 13.72V24.09C2.89999 24.33 2.73 24.47 2.49 24.47H0.399994H0.409996Z" fill="black"/>
</svg>
