<svg width="18" height="18" viewBox="0 0 18 18" fill="none" xmlns="http://www.w3.org/2000/svg">
<path fill-rule="evenodd" clip-rule="evenodd" d="M5.92214 5.4776H9.45491V7.30032H9.50442C9.99833 6.41611 11.1995 5.4776 12.9948 5.4776C16.7232 5.4776 17.4128 7.80204 17.4128 10.8253V17.2178H13.7291V11.536C13.7291 10.2351 13.702 8.56111 11.8136 8.56111C9.92524 8.56111 9.60226 9.97538 9.60226 11.4428V17.2297H5.92096V5.4776H5.92214ZM3.831 1.91834C3.831 2.97726 2.97286 3.83668 1.9155 3.83668C0.858145 3.83668 0 2.97726 0 1.91834C0 0.859416 0.858145 0 1.9155 0C2.97286 0.00118052 3.82982 0.859416 3.831 1.91834ZM0.00471519 5.4776H3.831V17.2178H0.00471519V5.4776Z" fill="white"/>
</svg>
