<svg width="21" height="21" viewBox="0 0 21 21" fill="none" xmlns="http://www.w3.org/2000/svg">
<path d="M10.3661 0C7.5512 0 7.19757 0.0118086 6.09188 0.0625709C4.98855 0.113333 4.23532 0.288052 3.57639 0.544224C2.89506 0.80984 2.31628 1.16399 1.73987 1.74126C1.16345 2.31854 0.808635 2.89699 0.543411 3.57933C0.286439 4.23924 0.111987 4.99359 0.0624783 6.09856C0.0129699 7.20588 0 7.56004 0 10.3791C0 13.1982 0.0129699 13.5512 0.0624783 14.6585C0.113165 15.7635 0.287619 16.5178 0.544591 17.1777C0.809814 17.86 1.16345 18.4397 1.73987 19.017C2.31628 19.5942 2.89388 19.9496 3.57521 20.2152C4.23414 20.4714 4.98855 20.6472 6.0907 20.698C7.19639 20.7488 7.54884 20.7606 10.3637 20.7606C13.1786 20.7606 13.5311 20.7488 14.6368 20.698C15.7401 20.6472 16.4945 20.4725 17.1535 20.2152C17.8348 19.9496 18.4124 19.5942 18.9888 19.017C19.5652 18.4397 19.92 17.8612 20.1853 17.1789C20.4399 16.519 20.6155 15.7646 20.6662 14.6597C20.7157 13.5523 20.7287 13.1994 20.7287 10.3803C20.7287 7.56121 20.7157 7.20706 20.6662 6.09974C20.6143 4.99477 20.4399 4.24042 20.1853 3.58051C19.92 2.89817 19.5652 2.31854 18.9888 1.74126C18.4124 1.16399 17.836 0.80866 17.1535 0.544224C16.4922 0.288052 15.7389 0.112153 14.6356 0.0625709C13.5299 0.0118086 13.1775 0 10.3626 0H10.3661ZM9.43605 1.87112C9.71189 1.87112 10.0195 1.87112 10.3661 1.87112C13.1339 1.87112 13.4616 1.88057 14.5543 1.93133C15.5645 1.97737 16.1138 2.14618 16.4792 2.28902C16.9625 2.47673 17.3079 2.70221 17.6698 3.06581C18.0328 3.42941 18.2568 3.7753 18.4454 4.25931C18.5868 4.62527 18.7566 5.17421 18.8026 6.18591C18.8521 7.28025 18.8627 7.60844 18.8627 10.3791C18.8627 13.1498 18.8521 13.478 18.8026 14.5723C18.7566 15.584 18.588 16.1341 18.4454 16.4989C18.258 16.9829 18.0328 17.3288 17.6698 17.6912C17.3067 18.0548 16.9625 18.2791 16.4792 18.468C16.1138 18.6109 15.5657 18.7797 14.5543 18.8257C13.4616 18.8753 13.1339 18.8859 10.3661 18.8859C7.59835 18.8859 7.27066 18.8753 6.17794 18.8257C5.16773 18.7785 4.61842 18.6097 4.253 18.468C3.76971 18.2803 3.42433 18.0548 3.06127 17.6912C2.69821 17.3276 2.47424 16.9829 2.28564 16.4977C2.14418 16.1318 1.97444 15.5828 1.92847 14.5711C1.87896 13.4768 1.86835 13.1486 1.86835 10.3767C1.86835 7.6049 1.87778 7.27789 1.92847 6.18355C1.97444 5.17185 2.14301 4.62173 2.28564 4.25577C2.47306 3.77176 2.69821 3.42586 3.06127 3.06226C3.42433 2.69866 3.76971 2.47437 4.253 2.28549C4.61842 2.14264 5.16655 1.97383 6.17794 1.92779C7.13392 1.88411 7.50405 1.87112 9.43605 1.86994V1.87231V1.87112ZM15.8993 3.59468C15.212 3.59468 14.6557 4.15188 14.6557 4.84012C14.6557 5.52836 15.2132 6.08557 15.8993 6.08557C16.5853 6.08557 17.1429 5.52718 17.1429 4.84012C17.1429 4.15306 16.5853 3.59468 15.8993 3.59468ZM10.3661 5.05026C7.42625 5.05026 5.04278 7.43726 5.04278 10.3815C5.04278 13.3257 7.42625 15.7115 10.3661 15.7115C13.306 15.7115 15.6883 13.3257 15.6883 10.3815C15.6883 7.43726 13.306 5.05026 10.3661 5.05026ZM10.3661 6.92019C12.2745 6.92019 13.8211 8.46903 13.8211 10.3803C13.8211 12.2915 12.2745 13.8404 10.3661 13.8404C8.45767 13.8404 6.91113 12.2915 6.91113 10.3803C6.91113 8.46903 8.45767 6.92019 10.3661 6.92019Z" fill="white"/>
</svg>
