<svg width="38" height="38" viewBox="0 0 38 38" fill="none" xmlns="http://www.w3.org/2000/svg">
<path fill-rule="evenodd" clip-rule="evenodd" d="M15.5725 15.8624H19.1053V17.6851H19.1548C19.6487 16.8009 20.8499 15.8624 22.6452 15.8624C26.3736 15.8624 27.0632 18.1868 27.0632 21.2101V27.6026H23.3795V21.9208C23.3795 20.6199 23.3524 18.9459 21.464 18.9459C19.5756 18.9459 19.2527 20.3601 19.2527 21.8275V27.6144H15.5714V15.8624H15.5725ZM13.4814 12.3031C13.4814 13.362 12.6232 14.2214 11.5659 14.2214C10.5085 14.2214 9.65039 13.362 9.65039 12.3031C9.65039 11.2442 10.5085 10.3848 11.5659 10.3848C12.6232 10.3859 13.4802 11.2442 13.4814 12.3031ZM9.65511 15.8624H13.4814V27.6026H9.65511V15.8624Z" fill="white"/>
<path d="M37.5 12.005V0.5H0.5V37.5H37.5V26.8555" stroke="#DC1F3E"/>
</svg>
