<svg width="17" height="17" viewBox="0 0 17 17" fill="none" xmlns="http://www.w3.org/2000/svg">
<path d="M3.37613 6.86513L1.31813 8.92313C0.474146 9.76712 0 10.9118 0 12.1054C0 13.299 0.474146 14.4436 1.31813 15.2876C2.16212 16.1316 3.30681 16.6058 4.50038 16.6058C5.69396 16.6058 6.83864 16.1316 7.68263 15.2876L10.4246 12.5441C10.9336 12.0351 11.313 11.4114 11.531 10.7255C11.749 10.0395 11.7993 9.31118 11.6777 8.60173C11.556 7.89229 11.2659 7.22238 10.8318 6.64824C10.3976 6.0741 9.83209 5.61248 9.18263 5.30213L8.30363 6.18113C8.21439 6.27053 8.13678 6.37082 8.07263 6.47963C8.57442 6.62388 9.02988 6.8966 9.39397 7.27082C9.75806 7.64504 10.0182 8.1078 10.1486 8.61335C10.2791 9.11891 10.2753 9.64976 10.1377 10.1534C10.0001 10.6571 9.73349 11.1161 9.36413 11.4851L6.62363 14.2271C6.06071 14.7901 5.29722 15.1063 4.50113 15.1063C3.70504 15.1063 2.94155 14.7901 2.37863 14.2271C1.81571 13.6642 1.49946 12.9007 1.49946 12.1046C1.49946 11.3085 1.81571 10.5451 2.37863 9.98213L3.56813 8.79413C3.4003 8.16522 3.33546 7.51478 3.37613 6.86513Z" fill="#DA1F3D"/>
<path d="M6.18263 4.06013C5.67369 4.56915 5.29428 5.19282 5.07625 5.87881C4.85821 6.5648 4.80792 7.29308 4.92959 8.00253C5.05126 8.71198 5.34134 9.38188 5.77549 9.95602C6.20963 10.5302 6.77517 10.9918 7.42463 11.3021L8.58713 10.1381C8.07855 10.0017 7.61484 9.73384 7.24258 9.36143C6.87033 8.98903 6.60265 8.5252 6.46645 8.01656C6.33024 7.50793 6.33031 6.9724 6.46665 6.4638C6.60298 5.9552 6.87078 5.49144 7.24313 5.11913L9.98363 2.37713C10.5466 1.81421 11.31 1.49796 12.1061 1.49796C12.9022 1.49796 13.6657 1.81421 14.2286 2.37713C14.7916 2.94005 15.1078 3.70354 15.1078 4.49963C15.1078 5.29572 14.7916 6.05921 14.2286 6.62213L13.0391 7.81013C13.2071 8.44013 13.2716 9.09263 13.2311 9.74063L15.2891 7.68263C16.1331 6.83865 16.6073 5.69396 16.6073 4.50038C16.6073 3.30681 16.1331 2.16212 15.2891 1.31813C14.4451 0.474146 13.3005 0 12.1069 0C10.9133 0 9.76862 0.474146 8.92463 1.31813L6.18263 4.06013Z" fill="#DA1F3D"/>
</svg>
