<svg width="64" height="64" viewBox="0 0 64 64" fill="none" xmlns="http://www.w3.org/2000/svg">
<path d="M63.11 14.81C63.16 14.81 63.21 14.77 63.21 14.71V1.66L63.18 0.09C63.18 0.04 63.14 0 63.08 0L0.1 0.02C0.05 0.02 0 0.06 0 0.12V62.33L0.03 64H61.53L63.1 63.97C63.15 63.97 63.19 63.93 63.19 63.87V49.66C63.19 49.61 63.15 49.56 63.09 49.56H59.99C59.94 49.56 59.89 49.6 59.89 49.66V60.61C59.89 60.66 59.85 60.71 59.79 60.71H3.38C3.33 60.71 3.28 60.67 3.28 60.61V3.37C3.28 3.32 3.32 3.27 3.38 3.27H59.82C59.87 3.27 59.92 3.31 59.92 3.37V14.72C59.92 14.77 59.96 14.82 60.02 14.82H63.12L63.11 14.81Z" fill="#DC1F3E"/>
</svg>
