<svg width="19" height="25" viewBox="0 0 19 25" fill="none" xmlns="http://www.w3.org/2000/svg">
<path d="M18.8197 23.99C18.9897 24.23 18.8897 24.47 18.5797 24.47H15.9497C15.7397 24.47 15.5697 24.37 15.4697 24.2L9.47966 14.48L3.45965 24.2C3.35965 24.37 3.18966 24.47 2.97966 24.47H0.349654C0.0396535 24.47 -0.100343 24.23 0.0796569 23.99L7.77965 12.18L0.459654 0.48C0.289654 0.24 0.429658 0 0.729658 0H3.32966C3.49966 0 3.66965 0.1 3.77965 0.27L9.48966 9.82L15.1697 0.27C15.2697 0.1 15.4397 0 15.6197 0H18.2197C18.4897 0 18.6297 0.24 18.4597 0.48L11.1697 12.18L18.8297 23.99H18.8197Z" fill="black"/>
</svg>
