<svg width="133" height="64" viewBox="0 0 133 64" fill="none" xmlns="http://www.w3.org/2000/svg">
<path d="M27.3705 19.75H23.1005C22.7581 19.75 22.4805 20.0276 22.4805 20.37V43.6C22.4805 43.9424 22.7581 44.22 23.1005 44.22H27.3705C27.7129 44.22 27.9905 43.9424 27.9905 43.6V20.37C27.9905 20.0276 27.7129 19.75 27.3705 19.75Z" fill="black"/>
<path d="M37.1802 39.05H40.7702C43.4002 39.05 44.7402 37.82 44.7402 34.98V29.03C44.7402 26.19 43.4002 24.89 40.7702 24.89H37.1802V39.06V39.05ZM32.2802 44.22C31.8702 44.22 31.6602 44.01 31.6602 43.6V20.37C31.6602 19.96 31.8702 19.75 32.2802 19.75H40.7002C46.1702 19.75 50.3802 22.21 50.3802 29.3V34.74C50.3802 41.86 46.1702 44.22 40.7002 44.22H32.2802Z" fill="black"/>
<path d="M61.8709 29.4C64.0309 29.4 65.3309 28.34 65.3309 26.56C65.3309 24.92 64.0309 23.93 61.8709 23.93C59.7109 23.93 58.4509 24.92 58.4509 26.56C58.4509 28.34 59.7209 29.4 61.8709 29.4ZM61.8709 39.91C64.2709 39.91 65.7009 38.68 65.7009 36.8C65.7009 34.92 64.2609 33.86 61.8709 33.86C59.4809 33.86 58.0409 34.96 58.0409 36.8C58.0409 38.64 59.5109 39.91 61.8709 39.91ZM61.8709 44.67C56.2209 44.67 52.6309 41.8 52.6309 36.87C52.6309 34.41 53.7909 32.25 55.9109 31.19C54.2709 29.96 53.3109 28.21 53.3109 26.16C53.3109 22.26 56.6609 19.32 61.8609 19.32C67.0609 19.32 70.4109 22.23 70.4109 26.16C70.4109 28.21 69.4909 29.96 67.8409 31.19C69.9609 32.29 71.0909 34.41 71.0909 36.87C71.0909 41.8 67.5309 44.67 61.8509 44.67H61.8709Z" fill="black"/>
<path d="M74.3494 44.22C74.0794 44.22 73.9395 44.08 73.9395 43.84V20.13C73.9395 19.89 74.0794 19.75 74.3494 19.75H76.7495C76.9195 19.75 77.1295 19.85 77.2295 20.02L86.2995 34.8C87.2195 36.37 88.3194 38.19 89.1694 39.8L89.2694 39.77C89.1294 36.93 89.0594 33.37 89.0594 30.5V20.13C89.0594 19.89 89.1995 19.75 89.4395 19.75H91.5594C91.7994 19.75 91.9395 19.89 91.9395 20.13V43.84C91.9395 44.08 91.7994 44.22 91.5594 44.22H89.1595C88.9495 44.22 88.7795 44.15 88.6795 43.98L79.6795 29.71C78.6895 28.1 77.5594 26.15 76.6994 24.51L76.6294 24.54C76.7294 27.24 76.8394 30.77 76.8394 33.47V43.84C76.8394 44.08 76.6695 44.22 76.4295 44.22H74.3394H74.3494Z" fill="black"/>
<path d="M113.06 43.74C113.23 43.98 113.13 44.22 112.82 44.22H110.19C109.98 44.22 109.81 44.12 109.71 43.95L103.72 34.23L97.6999 43.95C97.5999 44.12 97.4299 44.22 97.2199 44.22H94.5899C94.2799 44.22 94.1399 43.98 94.3199 43.74L102.02 31.93L94.6999 20.23C94.5299 19.99 94.6699 19.75 94.9699 19.75H97.5699C97.7399 19.75 97.9099 19.85 98.0199 20.02L103.73 29.57L109.41 20.02C109.51 19.85 109.68 19.75 109.86 19.75H112.46C112.73 19.75 112.87 19.99 112.7 20.23L105.41 31.93L113.07 43.74H113.06Z" fill="black"/>
<path d="M132.13 19.76C132.37 19.76 132.54 19.9 132.54 20.14V22.06C132.54 22.3 132.37 22.44 132.13 22.44H124.81V43.86C124.81 44.1 124.64 44.24 124.4 44.24H122.28C122.04 44.24 121.87 44.1 121.87 43.86V22.44H114.55C114.31 22.44 114.17 22.3 114.17 22.06V20.14C114.17 19.9 114.31 19.76 114.55 19.76H132.14H132.13Z" fill="black"/>
<path d="M63.11 14.81C63.16 14.81 63.21 14.77 63.21 14.71V1.66L63.18 0.09C63.18 0.04 63.14 0 63.08 0L0.1 0.02C0.05 0.02 0 0.06 0 0.12V62.33L0.03 64H61.53L63.1 63.97C63.15 63.97 63.19 63.93 63.19 63.87V49.66C63.19 49.61 63.15 49.56 63.09 49.56H59.99C59.94 49.56 59.89 49.6 59.89 49.66V60.61C59.89 60.66 59.85 60.71 59.79 60.71H3.38C3.33 60.71 3.28 60.67 3.28 60.61V3.37C3.28 3.32 3.32 3.27 3.38 3.27H59.82C59.87 3.27 59.92 3.31 59.92 3.37V14.72C59.92 14.77 59.96 14.82 60.02 14.82H63.12L63.11 14.81Z" fill="#DC1F3E"/>
</svg>
