<svg width="19" height="26" viewBox="0 0 19 26" fill="none" xmlns="http://www.w3.org/2000/svg">
<path d="M9.24 10.08C11.4 10.08 12.7 9.02 12.7 7.24C12.7 5.6 11.4 4.61 9.24 4.61C7.08 4.61 5.82 5.6 5.82 7.24C5.82 9.02 7.09 10.08 9.24 10.08ZM9.24 20.59C11.64 20.59 13.07 19.36 13.07 17.48C13.07 15.6 11.63 14.54 9.24 14.54C6.85 14.54 5.41 15.64 5.41 17.48C5.41 19.32 6.88 20.59 9.24 20.59ZM9.24 25.35C3.59 25.35 0 22.48 0 17.55C0 15.09 1.16 12.93 3.28 11.87C1.64 10.64 0.68 8.89 0.68 6.84C0.68 2.94 4.03 0 9.23 0C14.43 0 17.78 2.91 17.78 6.84C17.78 8.89 16.86 10.64 15.21 11.87C17.33 12.97 18.46 15.09 18.46 17.55C18.46 22.48 14.9 25.35 9.22 25.35H9.24Z" fill="black"/>
</svg>
