<svg width="38" height="38" viewBox="0 0 38 38" fill="none" xmlns="http://www.w3.org/2000/svg">
<path d="M18.2079 8.61914C15.393 8.61914 15.0394 8.63095 13.9337 8.68171C12.8304 8.73247 12.0771 8.90719 11.4182 9.16336C10.7369 9.42898 10.1581 9.78313 9.58166 10.3604C9.00524 10.9377 8.65043 11.5161 8.38521 12.1985C8.12824 12.8584 7.95378 13.6127 7.90428 14.7177C7.85477 15.825 7.8418 16.1792 7.8418 18.9983C7.8418 21.8173 7.85477 22.1703 7.90428 23.2776C7.95496 24.3826 8.12942 25.1369 8.38639 25.7968C8.65161 26.4792 9.00524 27.0588 9.58166 27.6361C10.1581 28.2134 10.7357 28.5687 11.417 28.8343C12.0759 29.0905 12.8303 29.2664 13.9325 29.3172C15.0382 29.3679 15.3906 29.3797 18.2055 29.3797C21.0204 29.3797 21.3729 29.3679 22.4786 29.3172C23.5819 29.2664 24.3363 29.0917 24.9953 28.8343C25.6766 28.5687 26.2542 28.2134 26.8306 27.6361C27.407 27.0588 27.7618 26.4804 28.0271 25.798C28.2817 25.1381 28.4573 24.3838 28.508 23.2788C28.5575 22.1715 28.5705 21.8185 28.5705 18.9994C28.5705 16.1804 28.5575 15.8262 28.508 14.7189C28.4561 13.6139 28.2817 12.8596 28.0271 12.1997C27.7618 11.5173 27.407 10.9377 26.8306 10.3604C26.2542 9.78313 25.6778 9.4278 24.9953 9.16336C24.334 8.90719 23.5807 8.73129 22.4774 8.68171C21.3717 8.63095 21.0193 8.61914 18.2044 8.61914H18.2079ZM17.2779 10.4903C17.5537 10.4903 17.8613 10.4903 18.2079 10.4903C20.9757 10.4903 21.3034 10.4997 22.3961 10.5505C23.4063 10.5965 23.9556 10.7653 24.321 10.9082C24.8043 11.0959 25.1497 11.3213 25.5116 11.6849C25.8746 12.0485 26.0986 12.3944 26.2872 12.8784C26.4286 13.2444 26.5984 13.7934 26.6444 14.8051C26.6939 15.8994 26.7045 16.2276 26.7045 18.9983C26.7045 21.7689 26.6939 22.0971 26.6444 23.1914C26.5984 24.2031 26.4298 24.7533 26.2872 25.118C26.0998 25.6021 25.8746 25.948 25.5116 26.3104C25.1485 26.674 24.8043 26.8983 24.321 27.0872C23.9556 27.23 23.4075 27.3988 22.3961 27.4449C21.3034 27.4944 20.9757 27.5051 18.2079 27.5051C15.4401 27.5051 15.1125 27.4944 14.0197 27.4449C13.0095 27.3976 12.4602 27.2288 12.0948 27.0872C11.6115 26.8995 11.2661 26.674 10.9031 26.3104C10.54 25.9468 10.316 25.6021 10.1274 25.1169C9.98598 24.7509 9.81624 24.202 9.77026 23.1903C9.72075 22.0959 9.71015 21.7677 9.71015 18.9959C9.71015 16.224 9.71958 15.897 9.77026 14.8027C9.81624 13.791 9.9848 13.2409 10.1274 12.8749C10.3149 12.3909 10.54 12.045 10.9031 11.6814C11.2661 11.3178 11.6115 11.0935 12.0948 10.9046C12.4602 10.7618 13.0083 10.593 14.0197 10.5469C14.9757 10.5032 15.3458 10.4903 17.2779 10.4891V10.4914V10.4903ZM23.741 12.2138C23.0538 12.2138 22.4974 12.771 22.4974 13.4593C22.4974 14.1475 23.055 14.7047 23.741 14.7047C24.4271 14.7047 24.9846 14.1463 24.9846 13.4593C24.9846 12.7722 24.4271 12.2138 23.741 12.2138ZM18.2079 13.6694C15.268 13.6694 12.8846 16.0564 12.8846 19.0006C12.8846 21.9448 15.268 24.3306 18.2079 24.3306C21.1478 24.3306 23.5301 21.9448 23.5301 19.0006C23.5301 16.0564 21.1478 13.6694 18.2079 13.6694ZM18.2079 15.5393C20.1163 15.5393 21.6629 17.0882 21.6629 18.9994C21.6629 20.9107 20.1163 22.4595 18.2079 22.4595C16.2995 22.4595 14.7529 20.9107 14.7529 18.9994C14.7529 17.0882 16.2995 15.5393 18.2079 15.5393Z" fill="white"/>
<path d="M37.5 12.005V0.5H0.5V37.5H37.5V26.8555" stroke="#DC1F3E"/>
</svg>
