<svg width="133" height="64" viewBox="0 0 133 64" fill="none" xmlns="http://www.w3.org/2000/svg">
<path d="M27.37 19.75H23.1C22.7576 19.75 22.48 20.0276 22.48 20.37V43.6C22.48 43.9424 22.7576 44.22 23.1 44.22H27.37C27.7124 44.22 27.99 43.9424 27.99 43.6V20.37C27.99 20.0276 27.7124 19.75 27.37 19.75Z" fill="white"/>
<path d="M37.18 39.05H40.77C43.4 39.05 44.74 37.82 44.74 34.98V29.03C44.74 26.19 43.4 24.89 40.77 24.89H37.18V39.06V39.05ZM32.28 44.22C31.87 44.22 31.66 44.01 31.66 43.6V20.37C31.66 19.96 31.87 19.75 32.28 19.75H40.7C46.17 19.75 50.38 22.21 50.38 29.3V34.74C50.38 41.86 46.17 44.22 40.7 44.22H32.28Z" fill="white"/>
<path d="M61.87 29.4C64.03 29.4 65.33 28.34 65.33 26.56C65.33 24.92 64.03 23.93 61.87 23.93C59.71 23.93 58.45 24.92 58.45 26.56C58.45 28.34 59.72 29.4 61.87 29.4ZM61.87 39.91C64.27 39.91 65.7 38.68 65.7 36.8C65.7 34.92 64.26 33.86 61.87 33.86C59.48 33.86 58.04 34.96 58.04 36.8C58.04 38.64 59.51 39.91 61.87 39.91ZM61.87 44.67C56.22 44.67 52.63 41.8 52.63 36.87C52.63 34.41 53.79 32.25 55.91 31.19C54.27 29.96 53.31 28.21 53.31 26.16C53.31 22.26 56.66 19.32 61.86 19.32C67.06 19.32 70.41 22.23 70.41 26.16C70.41 28.21 69.49 29.96 67.84 31.19C69.96 32.29 71.09 34.41 71.09 36.87C71.09 41.8 67.53 44.67 61.85 44.67H61.87Z" fill="white"/>
<path d="M74.35 44.22C74.08 44.22 73.94 44.08 73.94 43.84V20.13C73.94 19.89 74.08 19.75 74.35 19.75H76.75C76.92 19.75 77.13 19.85 77.23 20.02L86.3 34.8C87.22 36.37 88.32 38.19 89.17 39.8L89.27 39.77C89.13 36.93 89.06 33.37 89.06 30.5V20.13C89.06 19.89 89.2 19.75 89.44 19.75H91.56C91.8 19.75 91.94 19.89 91.94 20.13V43.84C91.94 44.08 91.8 44.22 91.56 44.22H89.16C88.95 44.22 88.78 44.15 88.68 43.98L79.68 29.71C78.69 28.1 77.56 26.15 76.7 24.51L76.63 24.54C76.73 27.24 76.84 30.77 76.84 33.47V43.84C76.84 44.08 76.67 44.22 76.43 44.22H74.34H74.35Z" fill="white"/>
<path d="M113.06 43.74C113.23 43.98 113.13 44.22 112.82 44.22H110.19C109.98 44.22 109.81 44.12 109.71 43.95L103.72 34.23L97.7 43.95C97.6 44.12 97.43 44.22 97.22 44.22H94.59C94.28 44.22 94.14 43.98 94.32 43.74L102.02 31.93L94.7 20.23C94.53 19.99 94.67 19.75 94.97 19.75H97.57C97.74 19.75 97.91 19.85 98.02 20.02L103.73 29.57L109.41 20.02C109.51 19.85 109.68 19.75 109.86 19.75H112.46C112.73 19.75 112.87 19.99 112.7 20.23L105.41 31.93L113.07 43.74H113.06Z" fill="white"/>
<path d="M132.13 19.76C132.37 19.76 132.54 19.9 132.54 20.14V22.06C132.54 22.3 132.37 22.44 132.13 22.44H124.81V43.86C124.81 44.1 124.64 44.24 124.4 44.24H122.28C122.04 44.24 121.87 44.1 121.87 43.86V22.44H114.55C114.31 22.44 114.17 22.3 114.17 22.06V20.14C114.17 19.9 114.31 19.76 114.55 19.76H132.14H132.13Z" fill="white"/>
<path d="M63.11 14.81C63.16 14.81 63.21 14.77 63.21 14.71V1.66L63.18 0.09C63.18 0.04 63.14 0 63.08 0L0.1 0.02C0.05 0.02 0 0.06 0 0.12V62.33L0.03 64H61.53L63.1 63.97C63.15 63.97 63.19 63.93 63.19 63.87V49.66C63.19 49.61 63.15 49.56 63.09 49.56H59.99C59.94 49.56 59.89 49.6 59.89 49.66V60.61C59.89 60.66 59.85 60.71 59.79 60.71H3.38C3.33 60.71 3.28 60.67 3.28 60.61V3.37C3.28 3.32 3.32 3.27 3.38 3.27H59.82C59.87 3.27 59.92 3.31 59.92 3.37V14.72C59.92 14.77 59.96 14.82 60.02 14.82H63.12L63.11 14.81Z" fill="#DC1F3E"/>
</svg>
