<svg width="257" height="125" viewBox="0 0 257 125" fill="none" xmlns="http://www.w3.org/2000/svg">
<path d="M53.0717 38.2969H44.792C44.1281 38.2969 43.5898 38.8351 43.5898 39.4991V84.5429C43.5898 85.2069 44.1281 85.7451 44.792 85.7451H53.0717C53.7357 85.7451 54.2739 85.2069 54.2739 84.5429V39.4991C54.2739 38.8351 53.7357 38.2969 53.0717 38.2969Z" fill="white"/>
<path d="M72.0931 75.7203H79.0543C84.154 75.7203 86.7523 73.3353 86.7523 67.8284V56.2911C86.7523 50.7843 84.154 48.2635 79.0543 48.2635H72.0931V75.7397V75.7203ZM62.5918 85.7451C61.7968 85.7451 61.3896 85.3379 61.3896 84.5429V39.4991C61.3896 38.7041 61.7968 38.2969 62.5918 38.2969H78.9186C89.5251 38.2969 97.6884 43.0669 97.6884 56.8147V67.3631C97.6884 81.169 89.5251 85.7451 78.9186 85.7451H62.5918Z" fill="white"/>
<path d="M119.968 57.0084C124.157 57.0084 126.677 54.953 126.677 51.5015C126.677 48.3215 124.157 46.4019 119.968 46.4019C115.78 46.4019 113.337 48.3215 113.337 51.5015C113.337 54.953 115.799 57.0084 119.968 57.0084ZM119.968 77.3877C124.622 77.3877 127.395 75.0027 127.395 71.3573C127.395 67.7119 124.603 65.6565 119.968 65.6565C115.334 65.6565 112.542 67.7894 112.542 71.3573C112.542 74.9251 115.392 77.3877 119.968 77.3877ZM119.968 86.6175C109.013 86.6175 102.052 81.0525 102.052 71.493C102.052 66.723 104.301 62.5347 108.412 60.4793C105.232 58.0943 103.37 54.7009 103.37 50.7259C103.37 43.1637 109.866 37.4629 119.949 37.4629C130.032 37.4629 136.528 43.1055 136.528 50.7259C136.528 54.7009 134.744 58.0943 131.544 60.4793C135.655 62.6122 137.846 66.723 137.846 71.493C137.846 81.0525 130.943 86.6175 119.929 86.6175H119.968Z" fill="white"/>
<path d="M144.167 85.7451C143.644 85.7451 143.372 85.4737 143.372 85.0083V39.0337C143.372 38.5683 143.644 38.2969 144.167 38.2969H148.821C149.15 38.2969 149.558 38.4908 149.752 38.8204L167.339 67.4794C169.122 70.5237 171.255 74.0527 172.904 77.1746L173.098 77.1164C172.826 71.6095 172.69 64.7066 172.69 59.1415V39.0337C172.69 38.5683 172.962 38.2969 173.427 38.2969H177.538C178.003 38.2969 178.275 38.5683 178.275 39.0337V85.0083C178.275 85.4737 178.003 85.7451 177.538 85.7451H172.884C172.477 85.7451 172.147 85.6094 171.953 85.2798L154.502 57.6097C152.582 54.4878 150.391 50.7067 148.724 47.5267L148.588 47.5849C148.782 52.8203 148.995 59.6651 148.995 64.9005V85.0083C148.995 85.4737 148.666 85.7451 148.2 85.7451H144.148H144.167Z" fill="white"/>
<path d="M219.227 84.8144C219.557 85.2798 219.363 85.7451 218.762 85.7451H213.662C213.255 85.7451 212.926 85.5512 212.732 85.2216L201.117 66.3741L189.444 85.2216C189.25 85.5512 188.92 85.7451 188.513 85.7451H183.413C182.812 85.7451 182.541 85.2798 182.89 84.8144L197.82 61.9144L183.627 39.2276C183.297 38.7622 183.568 38.2969 184.15 38.2969H189.192C189.521 38.2969 189.851 38.4908 190.064 38.8204L201.136 57.3382L212.15 38.8204C212.344 38.4908 212.673 38.2969 213.022 38.2969H218.064C218.587 38.2969 218.859 38.7622 218.529 39.2276L204.394 61.9144L219.247 84.8144H219.227Z" fill="white"/>
<path d="M256.205 38.3145C256.67 38.3145 257 38.5859 257 39.0513V42.7742C257 43.2396 256.67 43.5111 256.205 43.5111H242.011V85.0453C242.011 85.5106 241.682 85.7821 241.216 85.7821H237.105C236.64 85.7821 236.31 85.5106 236.31 85.0453V43.5111H222.117C221.651 43.5111 221.38 43.2396 221.38 42.7742V39.0513C221.38 38.5859 221.651 38.3145 222.117 38.3145H256.224H256.205Z" fill="white"/>
<path d="M122.373 28.7171C122.47 28.7171 122.567 28.6396 122.567 28.5232V3.2188L122.508 0.174513C122.508 0.0775615 122.431 0 122.315 0L0.193904 0.0387808C0.0969519 0.0387808 0 0.116342 0 0.232685V120.86L0.0581711 124.098H119.309L122.353 124.04C122.45 124.04 122.528 123.963 122.528 123.846V96.2926C122.528 96.1957 122.45 96.0987 122.334 96.0987H116.323C116.226 96.0987 116.129 96.1763 116.129 96.2926V117.525C116.129 117.622 116.051 117.719 115.935 117.719H6.55395C6.457 117.719 6.36004 117.641 6.36004 117.525V6.53456C6.36004 6.43761 6.43761 6.34065 6.55395 6.34065H115.993C116.09 6.34065 116.187 6.41822 116.187 6.53456V28.5426C116.187 28.6396 116.265 28.7365 116.381 28.7365H122.392L122.373 28.7171Z" fill="white"/>
</svg>
