<svg width="197" height="38" viewBox="0 0 197 38" fill="none" xmlns="http://www.w3.org/2000/svg">
<path fill-rule="evenodd" clip-rule="evenodd" d="M15.5725 15.8624H19.1053V17.6851H19.1548C19.6487 16.8009 20.8499 15.8624 22.6452 15.8624C26.3736 15.8624 27.0632 18.1868 27.0632 21.2101V27.6026H23.3795V21.9208C23.3795 20.6199 23.3524 18.9459 21.464 18.9459C19.5756 18.9459 19.2527 20.3601 19.2527 21.8275V27.6144H15.5714V15.8624H15.5725ZM13.4814 12.3031C13.4814 13.362 12.6232 14.2214 11.5659 14.2214C10.5085 14.2214 9.65039 13.362 9.65039 12.3031C9.65039 11.2442 10.5085 10.3848 11.5659 10.3848C12.6232 10.3859 13.4802 11.2442 13.4814 12.3031ZM9.65511 15.8624H13.4814V27.6026H9.65511V15.8624Z" fill="white"/>
<path d="M37.5 12.005V0.5H0.5V37.5H37.5V26.8555" stroke="#DC1F3E"/>
<path d="M82.3844 29.5865H76.177L70.493 21.3028L63.3779 29.5865H61.5391L69.6773 20.1128L61.5391 8.25098H67.7465L73.1287 16.0955L79.8666 8.25098H81.7055L73.9456 17.2843L82.3856 29.5853L82.3844 29.5865ZM77.0422 28.2631H79.8666L66.8647 9.63808H64.0404L77.0422 28.2631Z" fill="white"/>
<path d="M90.5 12.005V0.5H53.5V37.5H90.5V26.8555" stroke="#DC1F3E"/>
<path d="M124.208 8.61914C121.393 8.61914 121.039 8.63095 119.934 8.68171C118.83 8.73247 118.077 8.90719 117.418 9.16336C116.737 9.42898 116.158 9.78313 115.582 10.3604C115.005 10.9377 114.65 11.5161 114.385 12.1985C114.128 12.8584 113.954 13.6127 113.904 14.7177C113.855 15.825 113.842 16.1792 113.842 18.9983C113.842 21.8173 113.855 22.1703 113.904 23.2776C113.955 24.3826 114.129 25.1369 114.386 25.7968C114.652 26.4792 115.005 27.0588 115.582 27.6361C116.158 28.2134 116.736 28.5687 117.417 28.8343C118.076 29.0905 118.83 29.2664 119.932 29.3172C121.038 29.3679 121.391 29.3797 124.206 29.3797C127.02 29.3797 127.373 29.3679 128.479 29.3172C129.582 29.2664 130.336 29.0917 130.995 28.8343C131.677 28.5687 132.254 28.2134 132.831 27.6361C133.407 27.0588 133.762 26.4804 134.027 25.798C134.282 25.1381 134.457 24.3838 134.508 23.2788C134.558 22.1715 134.57 21.8185 134.57 18.9994C134.57 16.1804 134.558 15.8262 134.508 14.7189C134.456 13.6139 134.282 12.8596 134.027 12.1997C133.762 11.5173 133.407 10.9377 132.831 10.3604C132.254 9.78313 131.678 9.4278 130.995 9.16336C130.334 8.90719 129.581 8.73129 128.477 8.68171C127.372 8.63095 127.019 8.61914 124.204 8.61914H124.208ZM123.278 10.4903C123.554 10.4903 123.861 10.4903 124.208 10.4903C126.976 10.4903 127.303 10.4997 128.396 10.5505C129.406 10.5965 129.956 10.7653 130.321 10.9082C130.804 11.0959 131.15 11.3213 131.512 11.6849C131.875 12.0485 132.099 12.3944 132.287 12.8784C132.429 13.2444 132.598 13.7934 132.644 14.8051C132.694 15.8994 132.704 16.2276 132.704 18.9983C132.704 21.7689 132.694 22.0971 132.644 23.1914C132.598 24.2031 132.43 24.7533 132.287 25.1181C132.1 25.6021 131.875 25.948 131.512 26.3104C131.149 26.674 130.804 26.8983 130.321 27.0872C129.956 27.23 129.407 27.3988 128.396 27.4449C127.303 27.4944 126.976 27.5051 124.208 27.5051C121.44 27.5051 121.112 27.4944 120.02 27.4449C119.01 27.3976 118.46 27.2288 118.095 27.0872C117.612 26.8995 117.266 26.674 116.903 26.3104C116.54 25.9468 116.316 25.6021 116.127 25.1169C115.986 24.7509 115.816 24.202 115.77 23.1903C115.721 22.0959 115.71 21.7677 115.71 18.9959C115.71 16.224 115.72 15.897 115.77 14.8027C115.816 13.791 115.985 13.2409 116.127 12.8749C116.315 12.3909 116.54 12.045 116.903 11.6814C117.266 11.3178 117.612 11.0935 118.095 10.9046C118.46 10.7618 119.008 10.593 120.02 10.5469C120.976 10.5032 121.346 10.4903 123.278 10.4891V10.4914V10.4903ZM129.741 12.2138C129.054 12.2138 128.497 12.771 128.497 13.4593C128.497 14.1475 129.055 14.7047 129.741 14.7047C130.427 14.7047 130.985 14.1463 130.985 13.4593C130.985 12.7722 130.427 12.2138 129.741 12.2138ZM124.208 13.6694C121.268 13.6694 118.885 16.0564 118.885 19.0006C118.885 21.9448 121.268 24.3306 124.208 24.3306C127.148 24.3306 129.53 21.9448 129.53 19.0006C129.53 16.0564 127.148 13.6694 124.208 13.6694ZM124.208 15.5393C126.116 15.5393 127.663 17.0882 127.663 18.9994C127.663 20.9107 126.116 22.4595 124.208 22.4595C122.299 22.4595 120.753 20.9107 120.753 18.9994C120.753 17.0882 122.299 15.5393 124.208 15.5393Z" fill="white"/>
<path d="M143.5 12.005V0.5H106.5V37.5H143.5V26.8555" stroke="#DC1F3E"/>
<path d="M182.576 20.329L183.197 16.2645H179.294V13.626C179.294 12.514 179.838 11.4314 181.579 11.4314H183.361V7.97134C182.321 7.80371 181.272 7.71164 180.219 7.69629C177.02 7.69629 174.916 9.64178 174.916 13.1656V16.2645H171.352V20.329H174.916V30.2985H179.294V20.329H182.575H182.576Z" fill="white"/>
<path d="M196.5 12.005V0.5H159.5V37.5H196.5V26.8555" stroke="#DC1F3E"/>
</svg>
